<svg viewBox="0 0 330 200" xmlns="http://www.w3.org/2000/svg"><g><g><g><g><g><line x1="70" y1="178" x2="65" y2="178" style="visibility: inherit;" fill="rgb(0, 0, 0)" stroke="rgb(204, 204, 204)" stroke-width="1px"></line><line x1="70" y1="163.16666666666666" x2="65" y2="163.16666666666666" style="visibility: inherit;" fill="rgb(0, 0, 0)" stroke="rgb(204, 204, 204)" stroke-width="1px"></line><line x1="70" y1="148.33333333333334" x2="65" y2="148.33333333333334" style="visibility: inherit;" fill="rgb(0, 0, 0)" stroke="rgb(204, 204, 204)" stroke-width="1px"></line><line x1="70" y1="133.5" x2="65" y2="133.5" style="visibility: inherit;" fill="rgb(0, 0, 0)" stroke="rgb(204, 204, 204)" stroke-width="1px"></line><line x1="70" y1="118.66666666666667" x2="65" y2="118.66666666666667" style="visibility: inherit;" fill="rgb(0, 0, 0)" stroke="rgb(204, 204, 204)" stroke-width="1px"></line><line x1="70" y1="103.83333333333333" x2="65" y2="103.83333333333333" style="visibility: inherit;" fill="rgb(0, 0, 0)" stroke="rgb(204, 204, 204)" stroke-width="1px"></line><line x1="70" y1="89" x2="65" y2="89" style="visibility: inherit;" fill="rgb(0, 0, 0)" stroke="rgb(204, 204, 204)" stroke-width="1px"></line><line x1="70" y1="74.16666666666666" x2="65" y2="74.16666666666666" style="visibility: inherit;" fill="rgb(0, 0, 0)" stroke="rgb(204, 204, 204)" stroke-width="1px"></line><line x1="70" y1="59.33333333333334" x2="65" y2="59.33333333333334" style="visibility: inherit;" fill="rgb(0, 0, 0)" stroke="rgb(204, 204, 204)" stroke-width="1px"></line><line x1="70" y1="44.5" x2="65" y2="44.5" style="visibility: inherit;" fill="rgb(0, 0, 0)" stroke="rgb(204, 204, 204)" stroke-width="1px"></line><line x1="70" y1="29.666666666666657" x2="65" y2="29.666666666666657" style="visibility: inherit;" fill="rgb(0, 0, 0)" stroke="rgb(204, 204, 204)" stroke-width="1px"></line><line x1="70" y1="14.833333333333343" x2="65" y2="14.833333333333343" style="visibility: inherit;" fill="rgb(0, 0, 0)" stroke="rgb(204, 204, 204)" stroke-width="1px"></line><line x1="70" y1="0" x2="65" y2="0" style="visibility: inherit;" fill="rgb(0, 0, 0)" stroke="rgb(204, 204, 204)" stroke-width="1px"></line></g><g transform="translate(60, 0)"><text x="0" y="178" dx="0em" dy="0.3em" style="text-anchor: end; visibility: hidden; font-family: &quot;Helvetica Neue&quot;, sans-serif; font-size: 12px; font-weight: 200;" fill="rgb(50, 49, 63)" stroke="none" stroke-width="1px">5.7e+4</text><text x="0" y="163.16666666666666" dx="0em" dy="0.3em" style="text-anchor: end; visibility: inherit; font-family: &quot;Helvetica Neue&quot;, sans-serif; font-size: 12px; font-weight: 200;" fill="rgb(50, 49, 63)" stroke="none" stroke-width="1px">5.8e+4</text><text x="0" y="148.33333333333334" dx="0em" dy="0.3em" style="text-anchor: end; visibility: hidden; font-family: &quot;Helvetica Neue&quot;, sans-serif; font-size: 12px; font-weight: 200;" fill="rgb(50, 49, 63)" stroke="none" stroke-width="1px">5.9e+4</text><text x="0" y="133.5" dx="0em" dy="0.3em" style="text-anchor: end; visibility: inherit; font-family: &quot;Helvetica Neue&quot;, sans-serif; font-size: 12px; font-weight: 200;" fill="rgb(50, 49, 63)" stroke="none" stroke-width="1px">6e+4</text><text x="0" y="118.66666666666667" dx="0em" dy="0.3em" style="text-anchor: end; visibility: hidden; font-family: &quot;Helvetica Neue&quot;, sans-serif; font-size: 12px; font-weight: 200;" fill="rgb(50, 49, 63)" stroke="none" stroke-width="1px">6.1e+4</text><text x="0" y="103.83333333333333" dx="0em" dy="0.3em" style="text-anchor: end; visibility: inherit; font-family: &quot;Helvetica Neue&quot;, sans-serif; font-size: 12px; font-weight: 200;" fill="rgb(50, 49, 63)" stroke="none" stroke-width="1px">6.2e+4</text><text x="0" y="89" dx="0em" dy="0.3em" style="text-anchor: end; visibility: hidden; font-family: &quot;Helvetica Neue&quot;, sans-serif; font-size: 12px; font-weight: 200;" fill="rgb(50, 49, 63)" stroke="none" stroke-width="1px">6.3e+4</text><text x="0" y="74.16666666666666" dx="0em" dy="0.3em" style="text-anchor: end; visibility: inherit; font-family: &quot;Helvetica Neue&quot;, sans-serif; font-size: 12px; font-weight: 200;" fill="rgb(50, 49, 63)" stroke="none" stroke-width="1px">6.4e+4</text><text x="0" y="59.33333333333334" dx="0em" dy="0.3em" style="text-anchor: end; visibility: hidden; font-family: &quot;Helvetica Neue&quot;, sans-serif; font-size: 12px; font-weight: 200;" fill="rgb(50, 49, 63)" stroke="none" stroke-width="1px">6.5e+4</text><text x="0" y="44.5" dx="0em" dy="0.3em" style="text-anchor: end; visibility: inherit; font-family: &quot;Helvetica Neue&quot;, sans-serif; font-size: 12px; font-weight: 200;" fill="rgb(50, 49, 63)" stroke="none" stroke-width="1px">6.6e+4</text><text x="0" y="29.666666666666657" dx="0em" dy="0.3em" style="text-anchor: end; visibility: hidden; font-family: &quot;Helvetica Neue&quot;, sans-serif; font-size: 12px; font-weight: 200;" fill="rgb(50, 49, 63)" stroke="none" stroke-width="1px">6.7e+4</text><text x="0" y="14.833333333333343" dx="0em" dy="0.3em" style="text-anchor: end; visibility: inherit; font-family: &quot;Helvetica Neue&quot;, sans-serif; font-size: 12px; font-weight: 200;" fill="rgb(50, 49, 63)" stroke="none" stroke-width="1px">6.8e+4</text><text x="0" y="0" dx="0em" dy="0.3em" style="text-anchor: end; visibility: hidden; font-family: &quot;Helvetica Neue&quot;, sans-serif; font-size: 12px; font-weight: 200;" fill="rgb(50, 49, 63)" stroke="none" stroke-width="1px">6.9e+4</text></g><line x1="70" y1="0" x2="70" y2="178" fill="rgb(0, 0, 0)" stroke="rgb(204, 204, 204)" stroke-width="1px"></line></g></g><g transform="translate(70, 0)" clip-path="url(#clip_0)"><clipPath id="clip_0"><rect width="260" height="178"></rect></clipPath><g><g><g><line x1="0" y1="0" x2="0" y2="178" fill="rgb(0, 0, 0)" stroke="rgb(60, 60, 60)" stroke-width="1px" opacity="0.25"></line><line x1="37.14285714285714" y1="0" x2="37.14285714285714" y2="178" fill="rgb(0, 0, 0)" stroke="rgb(60, 60, 60)" stroke-width="1px" opacity="0.25"></line><line x1="74.28571428571428" y1="0" x2="74.28571428571428" y2="178" fill="rgb(0, 0, 0)" stroke="rgb(60, 60, 60)" stroke-width="1px" opacity="0.25"></line><line x1="111.42857142857142" y1="0" x2="111.42857142857142" y2="178" fill="rgb(0, 0, 0)" stroke="rgb(60, 60, 60)" stroke-width="1px" opacity="0.25"></line><line x1="148.57142857142856" y1="0" x2="148.57142857142856" y2="178" fill="rgb(0, 0, 0)" stroke="rgb(60, 60, 60)" stroke-width="1px" opacity="0.25"></line><line x1="185.71428571428572" y1="0" x2="185.71428571428572" y2="178" fill="rgb(0, 0, 0)" stroke="rgb(60, 60, 60)" stroke-width="1px" opacity="0.25"></line><line x1="222.85714285714283" y1="0" x2="222.85714285714283" y2="178" fill="rgb(0, 0, 0)" stroke="rgb(60, 60, 60)" stroke-width="1px" opacity="0.25"></line><line x1="260" y1="0" x2="260" y2="178" fill="rgb(0, 0, 0)" stroke="rgb(60, 60, 60)" stroke-width="1px" opacity="0.25"></line></g><g><line x1="0" y1="178" x2="260" y2="178" fill="rgb(0, 0, 0)" stroke="rgb(60, 60, 60)" stroke-width="1px" opacity="0.25"></line><line x1="0" y1="163.16666666666666" x2="260" y2="163.16666666666666" fill="rgb(0, 0, 0)" stroke="rgb(60, 60, 60)" stroke-width="1px" opacity="0.25"></line><line x1="0" y1="148.33333333333334" x2="260" y2="148.33333333333334" fill="rgb(0, 0, 0)" stroke="rgb(60, 60, 60)" stroke-width="1px" opacity="0.25"></line><line x1="0" y1="133.5" x2="260" y2="133.5" fill="rgb(0, 0, 0)" stroke="rgb(60, 60, 60)" stroke-width="1px" opacity="0.25"></line><line x1="0" y1="118.66666666666667" x2="260" y2="118.66666666666667" fill="rgb(0, 0, 0)" stroke="rgb(60, 60, 60)" stroke-width="1px" opacity="0.25"></line><line x1="0" y1="103.83333333333333" x2="260" y2="103.83333333333333" fill="rgb(0, 0, 0)" stroke="rgb(60, 60, 60)" stroke-width="1px" opacity="0.25"></line><line x1="0" y1="89" x2="260" y2="89" fill="rgb(0, 0, 0)" stroke="rgb(60, 60, 60)" stroke-width="1px" opacity="0.25"></line><line x1="0" y1="74.16666666666666" x2="260" y2="74.16666666666666" fill="rgb(0, 0, 0)" stroke="rgb(60, 60, 60)" stroke-width="1px" opacity="0.25"></line><line x1="0" y1="59.33333333333334" x2="260" y2="59.33333333333334" fill="rgb(0, 0, 0)" stroke="rgb(60, 60, 60)" stroke-width="1px" opacity="0.25"></line><line x1="0" y1="44.5" x2="260" y2="44.5" fill="rgb(0, 0, 0)" stroke="rgb(60, 60, 60)" stroke-width="1px" opacity="0.25"></line><line x1="0" y1="29.666666666666657" x2="260" y2="29.666666666666657" fill="rgb(0, 0, 0)" stroke="rgb(60, 60, 60)" stroke-width="1px" opacity="0.25"></line><line x1="0" y1="14.833333333333343" x2="260" y2="14.833333333333343" fill="rgb(0, 0, 0)" stroke="rgb(60, 60, 60)" stroke-width="1px" opacity="0.25"></line><line x1="0" y1="0" x2="260" y2="0" fill="rgb(0, 0, 0)" stroke="rgb(60, 60, 60)" stroke-width="1px" opacity="0.25"></line></g></g></g><g><g><line x1="0" y1="1023.5" x2="260" y2="1023.5" fill="rgb(0, 0, 0)" stroke="rgb(153, 153, 153)" stroke-width="1.5px"></line></g></g><g><g><line x1="37.14285714285714" y1="0" x2="37.14285714285714" y2="178" fill="rgb(0, 0, 0)" stroke="rgb(153, 153, 153)" stroke-width="1.5px"></line></g></g><g><g><g><g><g><path stroke="rgb(255, 112, 67)" stroke-width="2px" d="M43.08571428571428,-6.861047154150469L43.82857142857143,2.923845545253357L44.57142857142857,9.87067637070541L45.31428571428572,16.830785631986572L46.05714285714286,22.803837703903866L46.8,27.45675196470893L47.542857142857144,30.426104615522462L48.285714285714285,34.1242008345684L49.02857142857143,37.066611781788225L49.77142857142857,40.188200243295086L50.51428571428571,44.46585841341076L51.25714285714286,45.81516698507218L52,49.77126405908277L52.74285714285714,52.21092231748072L53.48571428571429,54.32560706995973L54.22857142857143,54.9801884373819L54.971428571428575,56.55376467156833L55.71428571428571,60.079676796669546L56.457142857142856,60.06167480957673L57.2,63.00546684976172L57.94285714285714,64.6780591115513L58.68571428571428,65.05400169587513L59.42857142857142,65.6843550073878L60.17142857142857,64.56052958165796L60.91428571428572,66.11325089605681L61.65714285714286,69.14927015586963L62.4,69.29721808564837L63.14285714285714,67.5696915106539L63.885714285714286,70.17726205794628L64.62857142857143,71.94803406425964L65.37142857142858,73.22662356640451L66.11428571428571,74.50492466238475L66.85714285714285,75.15004021461499L67.60000000000001,77.26417308811963L68.34285714285714,79.11326192632234L69.08571428571429,80.81551548942168L69.82857142857142,81.86718325209564L70.57142857142857,82.53971724296603L71.31428571428572,79.04642826231563L72.05714285714285,78.27247570737201L72.80000000000001,80.7095273515394L73.54285714285714,81.35766328592885L74.28571428571428,78.27364432570909L75.02857142857144,75.94696706416865L75.77142857142857,78.7589687801727L76.5142857142857,81.30077840352294L77.25714285714287,84.66992563586588L78,84.3535879336027L78.74285714285715,87.36892098932896L79.48571428571428,88.73729269776422L80.22857142857143,87.8610579103252L80.97142857142858,89.71530219411194L81.71428571428571,90.93495006646721L82.45714285714286,93.95732993571376L83.2,92.33688754476161L83.94285714285714,93.51469059977359L84.6857142857143,92.78207555778083L85.42857142857143,93.5192997617518L86.17142857142856,92.50469964871787L86.91428571428571,93.43983463298066L87.65714285714286,94.52937630062178L88.4,95.76442890537307L89.14285714285714,95.12730473905712L89.88571428571429,95.97364742676761L90.62857142857143,98.43159600814393L91.37142857142857,99.04535968821982L92.11428571428571,98.49860982334854L92.85714285714286,99.33553282109256L93.6,99.55390641140558L94.34285714285714,99.19881441975997L95.08571428571429,99.35675479768929L95.82857142857142,99.97671173278029L96.57142857142857,101.55289761258491L97.31428571428572,101.2434773696342L98.05714285714286,101.03110204678055L98.8,101.14114924890163L99.54285714285714,101.61500152850772L100.28571428571429,100.68610846918791L101.02857142857142,101.85235961276277L101.77142857142856,101.45845326765765L102.51428571428572,101.72064852309462L103.25714285714285,101.22622609302336L104,101.74549867664733L104.74285714285715,103.784589310155L105.48571428571428,103.21747494025965L106.22857142857143,102.41007220373915L106.97142857142858,102.41204800974349L107.71428571428572,102.8997204725128L108.45714285714286,103.49886405434104L109.2,104.1249561930213L109.94285714285715,104.77808751789613L110.68571428571428,104.86011188573767L111.42857142857142,105.54208405852599L112.17142857142858,104.53183324761564L112.91428571428571,105.16025645898607L113.65714285714286,104.44499762539171L114.4,106.96262305440169L115.14285714285714,107.599700395141L115.88571428571429,109.28028065375133L116.62857142857143,110.0249663089175L117.37142857142857,110.06534436868388L118.11428571428571,110.88521729829371L118.85714285714285,111.47988506647613L119.60000000000001,110.03775005030232L120.34285714285714,109.59385159268129L121.08571428571427,107.22282475769215L121.82857142857144,108.60591047961529L122.57142857142857,108.76809967318582L123.31428571428572,109.40963428307818L124.05714285714286,111.50386494484691L124.8,110.99811063357488L125.54285714285714,112.3892273176449L126.28571428571428,113.66449368225365L127.02857142857142,112.87101782393559L127.77142857142857,112.75195210061135L128.5142857142857,113.5323400103668L129.25714285714287,116.33283629788676L130,116.99338875789871L130.74285714285716,118.60227570265593L131.48571428571427,117.76983104659348L132.22857142857143,117.10784654462273L132.9714285714286,118.52416990594033L133.7142857142857,119.8068886623142L134.45714285714286,119.32333502030518L135.20000000000002,119.47127288718306L135.94285714285715,119.92908430522651L136.68571428571428,120.40267688521924L137.42857142857144,119.74185639154818L138.17142857142858,118.31345081409546L138.9142857142857,117.79242882179057L139.65714285714284,115.69504114724094L140.4,117.2589746883446L141.14285714285714,118.33331476092346L141.88571428571427,118.77861906488747L142.62857142857143,116.7891881055991L143.37142857142857,116.17555921752617L144.1142857142857,116.95297875968234L144.85714285714286,117.17827293289277L145.60000000000002,119.07924188473561L146.34285714285713,121.00473836000799L147.0857142857143,122.56296983892145L147.82857142857145,122.72685351793623L148.57142857142856,123.79111185034506L149.31428571428572,123.9686283081237L150.05714285714288,122.63134495362424L150.79999999999998,121.96743483675786L151.54285714285714,121.48171116247136L152.2857142857143,122.68390091623277L153.0285714285714,123.7183139872396L153.77142857142857,125.46142797567714L154.51428571428573,125.96963438957297L155.25714285714287,125.93552386291034L156,126.41742082816279L156.74285714285713,125.39297463231436L157.4857142857143,123.85029649813865L158.22857142857143,124.1962307634666L158.97142857142856,126.49448012474653L159.71428571428572,126.54338963734796L160.45714285714286,125.92537623032553L161.2,126.01970907152864L161.94285714285715,127.43383690125046L162.68571428571428,126.10584641158367L163.42857142857142,127.03630107611687L164.17142857142858,127.8436579894202L164.9142857142857,129.45934557490216L165.65714285714284,127.49794640744122L166.4,127.638677740298L167.14285714285717,129.3718647170954L167.88571428571427,129.67363315317388L168.62857142857143,127.54345228773771L169.3714285714286,128.1660036643093L170.1142857142857,127.7978446465022L170.85714285714286,128.30605392331802L171.6,129.3542685519074L172.34285714285713,130.02329368322773L173.0857142857143,131.0637241266033L173.82857142857142,128.51072874679528L174.57142857142856,129.12246407099389L175.31428571428572,129.80042583842962L176.05714285714285,128.95401800305777L176.8,127.84614179141798L177.54285714285714,128.92641866860077L178.28571428571428,130.76746291991043L179.02857142857144,131.27942827277965L179.77142857142857,130.97591451575119L180.5142857142857,130.38755834486733L181.25714285714287,129.70705245483703L182,128.76217626456892L182.74285714285713,127.9584734670746L183.4857142857143,128.20934293441147L184.22857142857143,128.57490159398017L184.97142857142856,129.76422090430484L185.71428571428572,131.59710337591625L186.45714285714288,132.44056384846635L187.2,132.85024664241305L187.94285714285715,132.9320089229479L188.68571428571428,133.3700241037687L189.42857142857142,132.3583485768445L190.17142857142858,132.60027346902342L190.9142857142857,132.63904559183072L191.65714285714284,134.37919766759845L192.4,134.77196651722574L193.14285714285714,134.27972834783537L193.88571428571427,134.62673831078453L194.62857142857143,134.83658986147069L195.37142857142857,134.93016876063245L196.11428571428573,134.51007339179623L196.85714285714286,136.54598830591107L197.6,136.39594063979672L198.34285714285716,135.86246490471146L199.0857142857143,136.26979222407684L199.82857142857142,135.66743705319607L200.57142857142858,134.307578377751L201.31428571428572,134.97265562040056L202.05714285714285,135.84711029932367L202.8,135.45438779417756L203.54285714285712,135.54842512442323L204.28571428571428,135.64371549132062L205.02857142857144,135.1676777322923L205.77142857142857,136.38089387895863L206.5142857142857,136.89904778570843L207.25714285714287,137.53131356725845L208,137.91982798410515L208.74285714285713,136.97315356129644L209.4857142857143,138.83712026177787L210.22857142857143,138.45483049040013L210.97142857142856,138.06745845049008L211.71428571428572,137.40836829946068L212.45714285714286,136.88720170884298L213.2,137.9396783169724L213.94285714285715,137.58796922976674L214.68571428571428,137.47723101702672L215.42857142857144,137.34357454771603L216.17142857142858,136.0955106140463L216.9142857142857,138.45444100384444L217.65714285714287,137.94260158147327L218.4,137.17255886555057L219.14285714285714,136.25445459016368L219.8857142857143,137.2405339520148L220.6285714285714,139.20744016287554L221.37142857142857,137.933826076892L222.11428571428573,138.75557272946844L222.85714285714283,138.16613504393098L223.6,137.78904040135865L224.34285714285716,136.95153439706522L225.0857142857143,137.4890560549058L225.82857142857142,138.54771957044352L226.57142857142858,139.42690283601607L227.31428571428572,137.98426800369296L228.05714285714285,138.81715012513249L228.8,139.3257330438295L229.54285714285714,141.54658461796436L230.28571428571428,140.55957941661183L231.02857142857144,141.38198957705038L231.77142857142857,141.39476614206365L232.5142857142857,141.40834223732162L233.25714285714287,140.7024019569764L234,141.1262614866859L234.74285714285713,142.0188740795116L235.48571428571427,141.95155934354028L236.22857142857143,141.50285982487415L236.9714285714286,140.83791459284112L237.7142857142857,140.25172297445468L238.45714285714286,141.55964940967274L239.20000000000002,141.3759740208037L239.94285714285712,141.9703752978989L240.68571428571428,143.9597256995726L241.42857142857144,141.93192995099355L242.17142857142855,142.4983118768461L242.9142857142857,142.16885639694107L243.65714285714287,141.956372952748L244.39999999999998,142.60139825081552" style="fill: none;" fill="none"></path></g></g></g></g><g opacity="0.2"><g><g><g><path stroke="rgb(255, 112, 67)" stroke-width="2px" d="M42.34285714285715,-0.8248723958333244L43.08571428571428,7.274475260416665L43.82857142857143,17.453270833333335L44.57142857142857,20.22791536458334L45.31428571428572,27.233072916666657L46.05714285714286,31.743912760416663L46.8,34.427007812499994L47.542857142857144,34.87664322916669L48.285714285714285,39.66873697916668L49.02857142857143,41.47898307291666L49.77142857142857,44.86979036458334L50.51428571428571,50.881694010416666L51.25714285714286,47.83900651041665L52,55.70519270833333L52.74285714285714,55.870329427083334L53.48571428571429,57.49759244791666L54.22857142857143,55.96205273437499L54.971428571428575,58.91411783854166L55.71428571428571,65.36852994791667L56.457142857142856,60.034671875000015L57.2,67.421150390625L57.94285714285714,67.18694596354167L58.68571428571428,65.61791536458334L59.42857142857142,66.629884765625L60.17142857142857,62.87479166666667L60.91428571428572,68.44233268229168L61.65714285714286,73.703298828125L62.4,69.51913997395833L63.14285714285714,64.97840169270832L63.885714285714286,74.08861783854167L64.62857142857143,74.60419205729167L65.37142857142858,75.14450781250001L66.11428571428571,76.42237630208334L66.85714285714285,76.11771354166667L67.60000000000001,80.43537239583333L68.34285714285714,81.88689518229167L69.08571428571429,83.36889583333333L69.82857142857142,83.44468489583333L70.57142857142857,83.54851822916667L71.31428571428572,73.80649479166667L72.05714285714285,77.11154687499999L72.80000000000001,84.36510481770833L73.54285714285714,82.32986718750001L74.28571428571428,73.64761588541666L75.02857142857144,72.456951171875L75.77142857142857,82.97697135416668L76.5142857142857,85.11349283854166L77.25714285714287,89.723646484375L78,83.87908138020833L78.74285714285715,91.89192057291666L79.48571428571428,90.78985026041667L80.22857142857143,86.54670572916666L80.97142857142858,92.49666861979166L81.71428571428571,92.764421875L82.45714285714286,98.49089973958333L83.2,89.90622395833333L83.94285714285714,95.28139518229167L84.6857142857143,91.68315299479167L85.42857142857143,94.62513606770834L86.17142857142856,90.98279947916667L86.91428571428571,94.842537109375L87.65714285714286,96.16368880208334L88.4,97.6170078125L89.14285714285714,94.17161848958334L89.88571428571429,97.24316145833333L90.62857142857143,102.11851888020833L91.37142857142857,99.96600520833333L92.11428571428571,97.67848502604166L92.85714285714286,100.59091731770833L93.6,99.881466796875L94.34285714285714,98.66617643229166L95.08571428571429,99.59366536458333L95.82857142857142,100.90664713541666L96.57142857142857,103.91717643229167L97.31428571428572,100.77934700520834L98.05714285714286,100.7125390625L98.8,101.30622005208333L99.54285714285714,102.32577994791666L100.28571428571429,99.29276888020833L101.02857142857142,103.601736328125L101.77142857142856,100.86759375L102.51428571428572,102.11394140625L103.25714285714285,100.48459244791667L104,102.52440755208333L104.74285714285715,106.84322526041666L105.48571428571428,102.36680338541666L106.22857142857143,101.19896809895833L106.97142857142858,102.41501171875L107.71428571428572,103.63122916666666L108.45714285714286,104.39757942708334L109.2,105.06409440104166L109.94285714285715,105.75778450520833L110.68571428571428,104.98314843749999L111.42857142857142,106.56504231770833L112.17142857142858,103.01645703125L112.91428571428571,106.10289127604166L113.65714285714286,103.37210937500001L114.4,110.73906119791667L115.14285714285714,108.55531640625L115.88571428571429,111.80115104166666L116.62857142857143,111.14199479166666L117.37142857142857,110.12591145833333L118.11428571428571,112.11502669270834L118.85714285714285,112.37188671875L119.60000000000001,107.87454752604167L120.34285714285714,108.92800390625L121.08571428571427,103.66628450520834L121.82857142857144,110.6805390625L122.57142857142857,109.01138346354166L123.31428571428572,110.37193619791667L124.05714285714286,114.6452109375L124.8,110.23947916666667L125.54285714285714,114.47590234375L126.28571428571428,115.57739322916667L127.02857142857142,111.68080403645834L127.77142857142857,112.573353515625L128.5142857142857,114.70292187499999L129.25714285714287,120.53358072916667L130,117.98421744791666L130.74285714285716,121.01560611979167L131.48571428571427,116.52116406249999L132.22857142857143,116.11486979166668L132.9714285714286,120.64865494791667L133.7142857142857,121.73096679687501L134.45714285714286,118.59800455729166L135.20000000000002,119.69317968749999L135.94285714285715,120.61580143229166L136.68571428571428,121.11306575520834L137.42857142857144,118.75062565104167L138.17142857142858,116.17084244791667L138.9142857142857,117.01089583333334L139.65714285714284,112.54895963541667L140.4,119.604875L141.14285714285714,119.94482486979167L141.88571428571427,119.44657552083333L142.62857142857143,113.80504166666667L143.37142857142857,115.25511588541667L144.1142857142857,118.11910807291667L144.85714285714286,117.51621419270833L145.60000000000002,121.9306953125L146.34285714285713,123.89298307291666L147.0857142857143,124.90031705729166L147.82857142857145,122.97267903645833L148.57142857142856,125.38749934895833L149.31428571428572,124.23490299479167L150.05714285714288,120.625419921875L150.79999999999998,120.97156966145833L151.54285714285714,120.75312565104167L152.2857142857143,124.487185546875L153.0285714285714,125.26993359375L153.77142857142857,128.07609895833332L154.51428571428573,126.73194401041667L155.25714285714287,125.88435807291667L156,127.14026627604167L156.74285714285713,123.85630533854166L157.4857142857143,121.536279296875L158.22857142857143,124.71513216145834L158.97142857142856,129.94185416666667L159.71428571428572,126.61675390625L160.45714285714286,124.99835611979165L161.2,126.16120833333333L161.94285714285715,129.55502864583335L162.68571428571428,124.11386067708332L163.42857142857142,128.43198307291667L164.17142857142858,129.054693359375L164.9142857142857,131.882876953125L165.65714285714284,124.55584765625L166.4,127.84977473958334L167.14285714285717,131.97164518229167L167.88571428571427,130.12628580729165L168.62857142857143,124.34818098958334L169.3714285714286,129.09983072916668L170.1142857142857,127.24560611979167L170.85714285714286,129.06836783854166L171.6,130.92659049479167L172.34285714285713,131.02683138020834L173.0857142857143,132.62436979166665L173.82857142857142,124.68123567708334L174.57142857142856,130.04006705729165L175.31428571428572,130.81736848958334L176.05714285714285,127.68440625L176.8,126.18432747395833L177.54285714285714,130.546833984375L178.28571428571428,133.529029296875L179.02857142857144,132.04737630208334L179.77142857142857,130.52064388020835L180.5142857142857,129.50502408854166L181.25714285714287,128.68629361979166L182,127.34486197916667L182.74285714285713,126.75291927083333L183.4857142857143,128.58564713541665L184.22857142857143,129.12323958333332L184.97142857142856,131.54819986979166L185.71428571428572,134.34642708333334L186.45714285714288,133.70575455729167L187.2,133.46477083333332L187.94285714285715,133.05465234375L188.68571428571428,134.027046875L189.42857142857142,130.84083528645834L190.17142857142858,132.96316080729167L190.9142857142857,132.69720377604168L191.65714285714284,136.98942578125L192.4,135.36111979166668L193.14285714285714,133.54137109375L193.88571428571427,135.14725325520834L194.62857142857143,135.1513671875L195.37142857142857,135.07053710937498L196.11428571428573,133.87993033854167L196.85714285714286,139.59986067708334L197.6,136.170869140625L198.34285714285716,135.06225130208333L199.0857142857143,136.880783203125L199.82857142857142,134.763904296875L200.57142857142858,132.26779036458333L201.31428571428572,135.97027148437502L202.05714285714285,137.15879231770833L202.8,134.86530403645833L203.54285714285712,135.68948111979165L204.28571428571428,135.78665104166666L205.02857142857144,134.45362109375L205.77142857142857,138.20071809895833L206.5142857142857,137.67627864583332L207.25714285714287,138.47971223958334L208,138.502599609375L208.74285714285713,135.55314192708335L209.4857142857143,141.6330703125L210.22857142857143,137.88139583333333L210.97142857142856,137.486400390625L211.71428571428572,136.41973307291667L212.45714285714286,136.10545182291668L213.2,139.51839322916666L213.94285714285715,137.06040559895834L214.68571428571428,137.31112369791666L215.42857142857144,137.14308984375L216.17142857142858,134.22341471354167L216.9142857142857,141.99283658854165L217.65714285714287,137.17484244791666L218.4,136.01749479166665L219.14285714285714,134.87729817708333L219.8857142857143,138.71965299479166L220.6285714285714,142.15779947916667L221.37142857142857,136.02340494791667L222.11428571428573,139.98819270833334L222.85714285714283,137.28197851562498L223.6,137.2233984375L224.34285714285716,135.695275390625L225.0857142857143,138.29533854166667L225.82857142857142,140.13571484375L226.57142857142858,140.745677734375L227.31428571428572,135.82031575520833L228.05714285714285,140.06647330729166L228.8,140.088607421875L229.54285714285714,144.87786197916665L230.28571428571428,139.07907161458334L231.02857142857144,142.61560481770834L231.77142857142857,141.41393098958332L232.5142857142857,141.42870638020833L233.25714285714287,139.64349153645833L234,141.76205078125L234.74285714285713,143.35779296875L235.48571428571427,141.85058723958332L236.22857142857143,140.829810546875L236.9714285714286,139.84049674479166L237.7142857142857,139.372435546875L238.45714285714286,143.52153906249998L239.20000000000002,141.1004609375L239.94285714285712,142.86197721354165L240.68571428571428,146.94375130208334L241.42857142857144,138.890236328125L242.17142857142855,143.347884765625L242.9142857142857,141.67467317708332L243.65714285714287,141.63764778645833L244.39999999999998,143.56893619791666" style="fill: none;" fill="none"></path></g></g></g></g></g></g><g transform="translate(70, 178)" clip-path="url(#clip_1)"><clipPath id="clip_1"><rect width="260" height="22"></rect></clipPath><g><g><line x1="0" y1="0" x2="0" y2="5" style="visibility: inherit;" fill="rgb(0, 0, 0)" stroke="rgb(204, 204, 204)" stroke-width="1px"></line><line x1="37.14285714285714" y1="0" x2="37.14285714285714" y2="5" style="visibility: inherit;" fill="rgb(0, 0, 0)" stroke="rgb(204, 204, 204)" stroke-width="1px"></line><line x1="74.28571428571428" y1="0" x2="74.28571428571428" y2="5" style="visibility: inherit;" fill="rgb(0, 0, 0)" stroke="rgb(204, 204, 204)" stroke-width="1px"></line><line x1="111.42857142857142" y1="0" x2="111.42857142857142" y2="5" style="visibility: inherit;" fill="rgb(0, 0, 0)" stroke="rgb(204, 204, 204)" stroke-width="1px"></line><line x1="148.57142857142856" y1="0" x2="148.57142857142856" y2="5" style="visibility: inherit;" fill="rgb(0, 0, 0)" stroke="rgb(204, 204, 204)" stroke-width="1px"></line><line x1="185.71428571428572" y1="0" x2="185.71428571428572" y2="5" style="visibility: inherit;" fill="rgb(0, 0, 0)" stroke="rgb(204, 204, 204)" stroke-width="1px"></line><line x1="222.85714285714283" y1="0" x2="222.85714285714283" y2="5" style="visibility: inherit;" fill="rgb(0, 0, 0)" stroke="rgb(204, 204, 204)" stroke-width="1px"></line><line x1="260" y1="0" x2="260" y2="5" style="visibility: inherit;" fill="rgb(0, 0, 0)" stroke="rgb(204, 204, 204)" stroke-width="1px"></line></g><g transform="translate(0, 8)"><text x="0" y="0" dx="0em" dy="0.95em" style="text-anchor: middle; visibility: hidden; font-family: &quot;Helvetica Neue&quot;, sans-serif; font-size: 12px; font-weight: 200;" fill="rgb(50, 49, 63)" stroke="none" stroke-width="1px">-50</text><text x="37.14285714285714" y="0" dx="0em" dy="0.95em" style="text-anchor: middle; visibility: inherit; font-family: &quot;Helvetica Neue&quot;, sans-serif; font-size: 12px; font-weight: 200;" fill="rgb(50, 49, 63)" stroke="none" stroke-width="1px">0</text><text x="74.28571428571428" y="0" dx="0em" dy="0.95em" style="text-anchor: middle; visibility: inherit; font-family: &quot;Helvetica Neue&quot;, sans-serif; font-size: 12px; font-weight: 200;" fill="rgb(50, 49, 63)" stroke="none" stroke-width="1px">50</text><text x="111.42857142857142" y="0" dx="0em" dy="0.95em" style="text-anchor: middle; visibility: inherit; font-family: &quot;Helvetica Neue&quot;, sans-serif; font-size: 12px; font-weight: 200;" fill="rgb(50, 49, 63)" stroke="none" stroke-width="1px">100</text><text x="148.57142857142856" y="0" dx="0em" dy="0.95em" style="text-anchor: middle; visibility: inherit; font-family: &quot;Helvetica Neue&quot;, sans-serif; font-size: 12px; font-weight: 200;" fill="rgb(50, 49, 63)" stroke="none" stroke-width="1px">150</text><text x="185.71428571428572" y="0" dx="0em" dy="0.95em" style="text-anchor: middle; visibility: inherit; font-family: &quot;Helvetica Neue&quot;, sans-serif; font-size: 12px; font-weight: 200;" fill="rgb(50, 49, 63)" stroke="none" stroke-width="1px">200</text><text x="222.85714285714283" y="0" dx="0em" dy="0.95em" style="text-anchor: middle; visibility: inherit; font-family: &quot;Helvetica Neue&quot;, sans-serif; font-size: 12px; font-weight: 200;" fill="rgb(50, 49, 63)" stroke="none" stroke-width="1px">250</text><text x="260" y="0" dx="0em" dy="0.95em" style="text-anchor: middle; visibility: hidden; font-family: &quot;Helvetica Neue&quot;, sans-serif; font-size: 12px; font-weight: 200;" fill="rgb(50, 49, 63)" stroke="none" stroke-width="1px">300</text></g><line x1="0" y1="0" x2="260" y2="0" fill="rgb(0, 0, 0)" stroke="rgb(204, 204, 204)" stroke-width="1px"></line></g></g></g></g></svg>