<svg viewBox="0 0 330 200" xmlns="http://www.w3.org/2000/svg"><g><g><g><g><g><line x1="70" y1="178" x2="65" y2="178" style="visibility: inherit;" fill="rgb(0, 0, 0)" stroke="rgb(204, 204, 204)" stroke-width="1px"></line><line x1="70" y1="163.16666666666666" x2="65" y2="163.16666666666666" style="visibility: inherit;" fill="rgb(0, 0, 0)" stroke="rgb(204, 204, 204)" stroke-width="1px"></line><line x1="70" y1="148.33333333333334" x2="65" y2="148.33333333333334" style="visibility: inherit;" fill="rgb(0, 0, 0)" stroke="rgb(204, 204, 204)" stroke-width="1px"></line><line x1="70" y1="133.5" x2="65" y2="133.5" style="visibility: inherit;" fill="rgb(0, 0, 0)" stroke="rgb(204, 204, 204)" stroke-width="1px"></line><line x1="70" y1="118.66666666666667" x2="65" y2="118.66666666666667" style="visibility: inherit;" fill="rgb(0, 0, 0)" stroke="rgb(204, 204, 204)" stroke-width="1px"></line><line x1="70" y1="103.83333333333333" x2="65" y2="103.83333333333333" style="visibility: inherit;" fill="rgb(0, 0, 0)" stroke="rgb(204, 204, 204)" stroke-width="1px"></line><line x1="70" y1="89" x2="65" y2="89" style="visibility: inherit;" fill="rgb(0, 0, 0)" stroke="rgb(204, 204, 204)" stroke-width="1px"></line><line x1="70" y1="74.16666666666666" x2="65" y2="74.16666666666666" style="visibility: inherit;" fill="rgb(0, 0, 0)" stroke="rgb(204, 204, 204)" stroke-width="1px"></line><line x1="70" y1="59.33333333333334" x2="65" y2="59.33333333333334" style="visibility: inherit;" fill="rgb(0, 0, 0)" stroke="rgb(204, 204, 204)" stroke-width="1px"></line><line x1="70" y1="44.5" x2="65" y2="44.5" style="visibility: inherit;" fill="rgb(0, 0, 0)" stroke="rgb(204, 204, 204)" stroke-width="1px"></line><line x1="70" y1="29.666666666666657" x2="65" y2="29.666666666666657" style="visibility: inherit;" fill="rgb(0, 0, 0)" stroke="rgb(204, 204, 204)" stroke-width="1px"></line><line x1="70" y1="14.833333333333343" x2="65" y2="14.833333333333343" style="visibility: inherit;" fill="rgb(0, 0, 0)" stroke="rgb(204, 204, 204)" stroke-width="1px"></line><line x1="70" y1="0" x2="65" y2="0" style="visibility: inherit;" fill="rgb(0, 0, 0)" stroke="rgb(204, 204, 204)" stroke-width="1px"></line></g><g transform="translate(60, 0)"><text x="0" y="178" dx="0em" dy="0.3em" style="text-anchor: end; visibility: hidden; font-family: &quot;Helvetica Neue&quot;, sans-serif; font-size: 12px; font-weight: 200;" fill="rgb(50, 49, 63)" stroke="none" stroke-width="1px">5.8e+4</text><text x="0" y="163.16666666666666" dx="0em" dy="0.3em" style="text-anchor: end; visibility: inherit; font-family: &quot;Helvetica Neue&quot;, sans-serif; font-size: 12px; font-weight: 200;" fill="rgb(50, 49, 63)" stroke="none" stroke-width="1px">5.9e+4</text><text x="0" y="148.33333333333334" dx="0em" dy="0.3em" style="text-anchor: end; visibility: hidden; font-family: &quot;Helvetica Neue&quot;, sans-serif; font-size: 12px; font-weight: 200;" fill="rgb(50, 49, 63)" stroke="none" stroke-width="1px">6e+4</text><text x="0" y="133.5" dx="0em" dy="0.3em" style="text-anchor: end; visibility: inherit; font-family: &quot;Helvetica Neue&quot;, sans-serif; font-size: 12px; font-weight: 200;" fill="rgb(50, 49, 63)" stroke="none" stroke-width="1px">6.1e+4</text><text x="0" y="118.66666666666667" dx="0em" dy="0.3em" style="text-anchor: end; visibility: hidden; font-family: &quot;Helvetica Neue&quot;, sans-serif; font-size: 12px; font-weight: 200;" fill="rgb(50, 49, 63)" stroke="none" stroke-width="1px">6.2e+4</text><text x="0" y="103.83333333333333" dx="0em" dy="0.3em" style="text-anchor: end; visibility: inherit; font-family: &quot;Helvetica Neue&quot;, sans-serif; font-size: 12px; font-weight: 200;" fill="rgb(50, 49, 63)" stroke="none" stroke-width="1px">6.3e+4</text><text x="0" y="89" dx="0em" dy="0.3em" style="text-anchor: end; visibility: hidden; font-family: &quot;Helvetica Neue&quot;, sans-serif; font-size: 12px; font-weight: 200;" fill="rgb(50, 49, 63)" stroke="none" stroke-width="1px">6.4e+4</text><text x="0" y="74.16666666666666" dx="0em" dy="0.3em" style="text-anchor: end; visibility: inherit; font-family: &quot;Helvetica Neue&quot;, sans-serif; font-size: 12px; font-weight: 200;" fill="rgb(50, 49, 63)" stroke="none" stroke-width="1px">6.5e+4</text><text x="0" y="59.33333333333334" dx="0em" dy="0.3em" style="text-anchor: end; visibility: hidden; font-family: &quot;Helvetica Neue&quot;, sans-serif; font-size: 12px; font-weight: 200;" fill="rgb(50, 49, 63)" stroke="none" stroke-width="1px">6.6e+4</text><text x="0" y="44.5" dx="0em" dy="0.3em" style="text-anchor: end; visibility: inherit; font-family: &quot;Helvetica Neue&quot;, sans-serif; font-size: 12px; font-weight: 200;" fill="rgb(50, 49, 63)" stroke="none" stroke-width="1px">6.7e+4</text><text x="0" y="29.666666666666657" dx="0em" dy="0.3em" style="text-anchor: end; visibility: hidden; font-family: &quot;Helvetica Neue&quot;, sans-serif; font-size: 12px; font-weight: 200;" fill="rgb(50, 49, 63)" stroke="none" stroke-width="1px">6.8e+4</text><text x="0" y="14.833333333333343" dx="0em" dy="0.3em" style="text-anchor: end; visibility: inherit; font-family: &quot;Helvetica Neue&quot;, sans-serif; font-size: 12px; font-weight: 200;" fill="rgb(50, 49, 63)" stroke="none" stroke-width="1px">6.9e+4</text><text x="0" y="0" dx="0em" dy="0.3em" style="text-anchor: end; visibility: hidden; font-family: &quot;Helvetica Neue&quot;, sans-serif; font-size: 12px; font-weight: 200;" fill="rgb(50, 49, 63)" stroke="none" stroke-width="1px">7e+4</text></g><line x1="70" y1="0" x2="70" y2="178" fill="rgb(0, 0, 0)" stroke="rgb(204, 204, 204)" stroke-width="1px"></line></g></g><g transform="translate(70, 0)" clip-path="url(#clip_0)"><clipPath id="clip_0"><rect width="260" height="178"></rect></clipPath><g><g><g><line x1="0" y1="0" x2="0" y2="178" fill="rgb(0, 0, 0)" stroke="rgb(60, 60, 60)" stroke-width="1px" opacity="0.25"></line><line x1="21.666666666666664" y1="0" x2="21.666666666666664" y2="178" fill="rgb(0, 0, 0)" stroke="rgb(60, 60, 60)" stroke-width="1px" opacity="0.25"></line><line x1="43.33333333333333" y1="0" x2="43.33333333333333" y2="178" fill="rgb(0, 0, 0)" stroke="rgb(60, 60, 60)" stroke-width="1px" opacity="0.25"></line><line x1="65" y1="0" x2="65" y2="178" fill="rgb(0, 0, 0)" stroke="rgb(60, 60, 60)" stroke-width="1px" opacity="0.25"></line><line x1="86.66666666666666" y1="0" x2="86.66666666666666" y2="178" fill="rgb(0, 0, 0)" stroke="rgb(60, 60, 60)" stroke-width="1px" opacity="0.25"></line><line x1="108.33333333333334" y1="0" x2="108.33333333333334" y2="178" fill="rgb(0, 0, 0)" stroke="rgb(60, 60, 60)" stroke-width="1px" opacity="0.25"></line><line x1="130" y1="0" x2="130" y2="178" fill="rgb(0, 0, 0)" stroke="rgb(60, 60, 60)" stroke-width="1px" opacity="0.25"></line><line x1="151.66666666666669" y1="0" x2="151.66666666666669" y2="178" fill="rgb(0, 0, 0)" stroke="rgb(60, 60, 60)" stroke-width="1px" opacity="0.25"></line><line x1="173.33333333333331" y1="0" x2="173.33333333333331" y2="178" fill="rgb(0, 0, 0)" stroke="rgb(60, 60, 60)" stroke-width="1px" opacity="0.25"></line><line x1="195" y1="0" x2="195" y2="178" fill="rgb(0, 0, 0)" stroke="rgb(60, 60, 60)" stroke-width="1px" opacity="0.25"></line><line x1="216.66666666666669" y1="0" x2="216.66666666666669" y2="178" fill="rgb(0, 0, 0)" stroke="rgb(60, 60, 60)" stroke-width="1px" opacity="0.25"></line><line x1="238.33333333333331" y1="0" x2="238.33333333333331" y2="178" fill="rgb(0, 0, 0)" stroke="rgb(60, 60, 60)" stroke-width="1px" opacity="0.25"></line><line x1="260" y1="0" x2="260" y2="178" fill="rgb(0, 0, 0)" stroke="rgb(60, 60, 60)" stroke-width="1px" opacity="0.25"></line></g><g><line x1="0" y1="178" x2="260" y2="178" fill="rgb(0, 0, 0)" stroke="rgb(60, 60, 60)" stroke-width="1px" opacity="0.25"></line><line x1="0" y1="163.16666666666666" x2="260" y2="163.16666666666666" fill="rgb(0, 0, 0)" stroke="rgb(60, 60, 60)" stroke-width="1px" opacity="0.25"></line><line x1="0" y1="148.33333333333334" x2="260" y2="148.33333333333334" fill="rgb(0, 0, 0)" stroke="rgb(60, 60, 60)" stroke-width="1px" opacity="0.25"></line><line x1="0" y1="133.5" x2="260" y2="133.5" fill="rgb(0, 0, 0)" stroke="rgb(60, 60, 60)" stroke-width="1px" opacity="0.25"></line><line x1="0" y1="118.66666666666667" x2="260" y2="118.66666666666667" fill="rgb(0, 0, 0)" stroke="rgb(60, 60, 60)" stroke-width="1px" opacity="0.25"></line><line x1="0" y1="103.83333333333333" x2="260" y2="103.83333333333333" fill="rgb(0, 0, 0)" stroke="rgb(60, 60, 60)" stroke-width="1px" opacity="0.25"></line><line x1="0" y1="89" x2="260" y2="89" fill="rgb(0, 0, 0)" stroke="rgb(60, 60, 60)" stroke-width="1px" opacity="0.25"></line><line x1="0" y1="74.16666666666666" x2="260" y2="74.16666666666666" fill="rgb(0, 0, 0)" stroke="rgb(60, 60, 60)" stroke-width="1px" opacity="0.25"></line><line x1="0" y1="59.33333333333334" x2="260" y2="59.33333333333334" fill="rgb(0, 0, 0)" stroke="rgb(60, 60, 60)" stroke-width="1px" opacity="0.25"></line><line x1="0" y1="44.5" x2="260" y2="44.5" fill="rgb(0, 0, 0)" stroke="rgb(60, 60, 60)" stroke-width="1px" opacity="0.25"></line><line x1="0" y1="29.666666666666657" x2="260" y2="29.666666666666657" fill="rgb(0, 0, 0)" stroke="rgb(60, 60, 60)" stroke-width="1px" opacity="0.25"></line><line x1="0" y1="14.833333333333343" x2="260" y2="14.833333333333343" fill="rgb(0, 0, 0)" stroke="rgb(60, 60, 60)" stroke-width="1px" opacity="0.25"></line><line x1="0" y1="0" x2="260" y2="0" fill="rgb(0, 0, 0)" stroke="rgb(60, 60, 60)" stroke-width="1px" opacity="0.25"></line></g></g></g><g><g><line x1="0" y1="1038.3333333333333" x2="260" y2="1038.3333333333333" fill="rgb(0, 0, 0)" stroke="rgb(153, 153, 153)" stroke-width="1.5px"></line></g></g><g><g><line x1="21.666666666666664" y1="0" x2="21.666666666666664" y2="178" fill="rgb(0, 0, 0)" stroke="rgb(153, 153, 153)" stroke-width="1.5px"></line></g></g><g><g><g><g><g><path stroke="rgb(255, 112, 67)" stroke-width="2px" d="M29.25,-1.6123810345980871L30.333333333333332,7.972286179182873L31.416666666666668,17.7571788785867L32.5,24.704009704038725L33.583333333333336,31.664118965319915L34.666666666666664,37.63717103723721L35.75,42.29008529804224L36.833333333333336,45.259437948855805L37.91666666666667,48.95753416790171L39,51.89994511512158L40.083333333333336,55.021533576628414L41.166666666666664,59.299191746744086L42.25,60.64850031840551L43.33333333333333,64.60459739241611L44.416666666666664,67.04425565081405L45.5,69.15894040329307L46.583333333333336,69.81352177071524L47.666666666666664,71.38709800490167L48.75,74.91301013000286L49.833333333333336,74.89500814291006L50.916666666666664,77.83880018309505L52,79.51139244488465L53.083333333333336,79.88733502920847L54.16666666666667,80.51768834072112L55.25,79.39386291499127L56.333333333333336,80.94658422939014L57.416666666666664,83.98260348920297L58.5,84.1305514189817L59.58333333333333,82.40302484398723L60.666666666666664,85.01059539127962L61.75,86.78136739759297L62.833333333333336,88.05995689973786L63.916666666666664,89.3382579957181L65,89.98337354794832L66.08333333333333,92.09750642145296L67.16666666666667,93.94659525965568L68.25,95.64884882275503L69.33333333333333,96.70051658542899L70.41666666666666,97.37305057629938L71.5,93.87976159564896L72.58333333333333,93.10580904070534L73.66666666666667,95.54286068487274L74.75,96.19099661926218L75.83333333333334,93.10697765904241L76.91666666666667,90.78030039750197L78,93.59230211350602L79.08333333333333,96.13411173685627L80.16666666666667,99.50325896919921L81.25,99.18692126693603L82.33333333333333,102.20225432266228L83.41666666666667,103.57062603109756L84.5,102.69439124365853L85.58333333333333,104.54863552744527L86.66666666666666,105.76828339980054L87.75,108.7906632690471L88.83333333333333,107.17022087809495L89.91666666666667,108.34802393310693L91,107.61540889111416L92.08333333333334,108.35263309508514L93.16666666666667,107.33803298205122L94.25,108.27316796631399L95.33333333333333,109.3627096339551L96.41666666666667,110.5977622387064L97.5,109.96063807239047L98.58333333333333,110.80698076010094L99.66666666666667,113.26492934147726L100.75,113.87869302155315L101.83333333333333,113.33194315668189L102.91666666666666,114.16886615442588L104,114.3872397447389L105.08333333333333,114.03214775309331L106.16666666666667,114.19008813102263L107.25,114.81004506611362L108.33333333333334,116.38623094591824L109.41666666666667,116.07681070296755L110.5,115.86443538011389L111.58333333333333,115.97448258223496L112.66666666666667,116.44833486184106L113.75,115.51944180252126L114.83333333333333,116.68569294609611L115.91666666666667,116.29178660099097L117,116.55398185642795L118.08333333333333,116.05955942635669L119.16666666666666,116.57883200998066L120.25,118.61792264348833L121.33333333333333,118.05080827359296L122.41666666666667,117.24340553707248L123.5,117.24538134307682L124.58333333333334,117.73305380584614L125.66666666666667,118.33219738767437L126.75,118.95828952635463L127.83333333333333,119.61142085122944L128.91666666666666,119.69344521907101L130,120.37541739185932L131.08333333333334,119.36516658094897L132.16666666666666,119.9935897923194L133.25,119.27833095872504L134.33333333333334,121.79595638773503L135.41666666666669,122.43303372847433L136.5,124.11361398708466L137.58333333333334,124.85829964225084L138.66666666666666,124.89867770201721L139.75,125.71855063162704L140.83333333333331,126.31321839980947L141.91666666666666,124.87108338363566L143,124.42718492601463L144.08333333333334,122.05615809102548L145.16666666666666,123.43924381294862L146.25,123.60143300651914L147.33333333333334,124.24296761641152L148.41666666666666,126.33719827818024L149.5,125.83144396690821L150.58333333333334,127.22256065097824L151.66666666666669,128.49782701558698L152.75,127.70435115726892L153.83333333333334,127.58528543394469L154.91666666666666,128.3656733437001L156,131.1661696312201L157.08333333333331,131.82672209123203L158.16666666666666,133.43560903598927L159.25,132.6031643799268L160.33333333333334,131.94117987795607L161.41666666666666,133.35750323927365L162.5,134.64022199564752L163.58333333333334,134.1566683536385L164.66666666666666,134.3046062205164L165.75,134.76241763855984L166.83333333333334,135.23601021855256L167.91666666666669,134.5751897248815L169,133.1467841474288L170.08333333333334,132.6257621551239L171.16666666666666,130.52837448057429L172.25,132.09230802167792L173.33333333333331,133.1666480942568L174.41666666666666,133.61195239822078L175.5,131.62252143893244L176.58333333333334,131.0088925508595L177.66666666666666,131.78631209301568L178.75,132.0116062662261L179.83333333333334,133.91257521806895L180.91666666666666,135.83807169334133L182,137.39630317225476L183.08333333333334,137.56018685126958L184.16666666666669,138.6244451836784L185.25,138.80196164145704L186.33333333333334,137.46467828695756L187.41666666666666,136.8007681700912L188.5,136.3150444958047L189.58333333333331,137.51723424956612L190.66666666666666,138.55164732057293L191.75,140.29476130901048L192.83333333333334,140.80296772290632L193.91666666666666,140.7688571962437L195,141.2507541614961L196.08333333333334,140.2263079656477L197.16666666666666,138.68362983147196L198.25,139.02956409679993L199.33333333333334,141.32781345807987L200.41666666666669,141.3767229706813L201.5,140.75870956365884L202.58333333333334,140.85304240486198L203.66666666666666,142.26717023458377L204.75,140.939179744917L205.83333333333331,141.8696344094502L206.91666666666666,142.6769913227535L208,144.29267890823547L209.08333333333334,142.33127974077456L210.16666666666666,142.47201107363134L211.25,144.20519805042875L212.33333333333334,144.50696648650722L213.41666666666666,142.37678562107104L214.5,142.99933699764262L215.58333333333334,142.63117797983554L216.66666666666669,143.13938725665136L217.75,144.18760188524072L218.83333333333334,144.85662701656105L219.91666666666666,145.89705745993663L221,143.3440620801286L222.08333333333331,143.9557974043272L223.16666666666666,144.63375917176296L224.25,143.7873513363911L225.33333333333334,142.67947512475132L226.41666666666666,143.7597520019341L227.5,145.60079625324374L228.58333333333334,146.112761606113L229.66666666666666,145.80924784908453L230.75,145.22089167820067L231.83333333333334,144.54038578817037L232.91666666666669,143.59550959790226L234,142.79180680040793L235.08333333333334,143.0426762677448L236.16666666666666,143.40823492731352L237.25,144.59755423763818L238.33333333333331,146.4304367092496L239.41666666666666,147.27389718179967L240.5,147.6835799757464L241.58333333333334,147.7653422562812L242.66666666666666,148.20335743710206L243.75,147.1916819101778L244.83333333333334,147.43360680235676L245.91666666666666,147.47237892516404L247,149.2125310009318L248.08333333333334,149.60529985055905" style="fill: none;" fill="none"></path></g></g></g></g><g opacity="0.2"><g><g><g><path stroke="rgb(255, 112, 67)" stroke-width="2px" d="M26,-13.414779947916657L27.083333333333336,0.824408854166677L28.166666666666668,4.84887760416666L29.25,14.00846093749999L30.333333333333332,22.107808593750008L31.416666666666668,32.28660416666665L32.5,35.06124869791665L33.583333333333336,42.06640625L34.666666666666664,46.577246093750006L35.75,49.26034114583334L36.833333333333336,49.7099765625L37.91666666666667,54.502070312499995L39,56.31231640624999L40.083333333333336,59.70312369791665L41.166666666666664,65.71502734375001L42.25,62.67233984375001L43.33333333333333,70.53852604166667L44.416666666666664,70.70366276041668L45.5,72.33092578125L46.583333333333336,70.79538606770834L47.666666666666664,73.747451171875L48.75,80.20186328125L49.833333333333336,74.86800520833333L50.916666666666664,82.25448372395834L52,82.020279296875L53.083333333333336,80.45124869791665L54.16666666666667,81.46321809895834L55.25,77.708125L56.333333333333336,83.27566601562499L57.416666666666664,88.53663216145834L58.5,84.35247330729167L59.58333333333333,79.81173502604166L60.666666666666664,88.92195117187501L61.75,89.437525390625L62.833333333333336,89.97784114583334L63.916666666666664,91.25570963541666L65,90.951046875L66.08333333333333,95.26870572916667L67.16666666666667,96.720228515625L68.25,98.20222916666667L69.33333333333333,98.27801822916666L70.41666666666666,98.3818515625L71.5,88.639828125L72.58333333333333,91.94488020833333L73.66666666666667,99.19843815104167L74.75,97.16320052083334L75.83333333333334,88.48094921875L76.91666666666667,87.29028450520835L78,97.81030468750001L79.08333333333333,99.946826171875L80.16666666666667,104.55697981770834L81.25,98.71241471354166L82.33333333333333,106.72525390625L83.41666666666667,105.62318359375L84.5,101.3800390625L85.58333333333333,107.330001953125L86.66666666666666,107.59775520833333L87.75,113.32423307291667L88.83333333333333,104.73955729166667L89.91666666666667,110.114728515625L91,106.516486328125L92.08333333333334,109.45846940104167L93.16666666666667,105.8161328125L94.25,109.67587044270834L95.33333333333333,110.99702213541667L96.41666666666667,112.45034114583333L97.5,109.00495182291667L98.58333333333333,112.07649479166666L99.66666666666667,116.95185221354167L100.75,114.79933854166666L101.83333333333333,112.511818359375L102.91666666666666,115.42425065104166L104,114.71480013020835L105.08333333333333,113.49950976562499L106.16666666666667,114.42699869791666L107.25,115.73998046874999L108.33333333333334,118.750509765625L109.41666666666667,115.61268033854167L110.5,115.54587239583333L111.58333333333333,116.13955338541666L112.66666666666667,117.15911328125L113.75,114.12610221354166L114.83333333333333,118.43506966145833L115.91666666666667,115.70092708333333L117,116.94727473958332L118.08333333333333,115.31792578125L119.16666666666666,117.35774088541666L120.25,121.67655859375L121.33333333333333,117.20013671875L122.41666666666667,116.03230143229166L123.5,117.24834505208334L124.58333333333334,118.4645625L125.66666666666667,119.23091276041666L126.75,119.897427734375L127.83333333333333,120.59111783854166L128.91666666666666,119.81648177083333L130,121.39837565104168L131.08333333333334,117.84979036458333L132.16666666666666,120.936224609375L133.25,118.20544270833332L134.33333333333334,125.57239453125L135.41666666666669,123.38864973958334L136.5,126.634484375L137.58333333333334,125.975328125L138.66666666666666,124.95924479166666L139.75,126.94836002604166L140.83333333333331,127.20522005208333L141.91666666666666,122.707880859375L143,123.76133723958333L144.08333333333334,118.49961783854167L145.16666666666666,125.51387239583335L146.25,123.84471679687499L147.33333333333334,125.20526953125L148.41666666666666,129.47854427083334L149.5,125.0728125L150.58333333333334,129.30923567708334L151.66666666666669,130.4107265625L152.75,126.51413736979167L153.83333333333334,127.40668684895833L154.91666666666666,129.53625520833333L156,135.3669140625L157.08333333333331,132.81755078125L158.16666666666666,135.848939453125L159.25,131.35449739583333L160.33333333333334,130.948203125L161.41666666666666,135.48198828124998L162.5,136.56430013020832L163.58333333333334,133.431337890625L164.66666666666666,134.52651302083333L165.75,135.449134765625L166.83333333333334,135.94639908854168L167.91666666666669,133.583958984375L169,131.00417578125L170.08333333333334,131.84422916666668L171.16666666666666,127.38229296875L172.25,134.43820833333334L173.33333333333331,134.778158203125L174.41666666666666,134.27990885416668L175.5,128.638375L176.58333333333334,130.08844921875001L177.66666666666666,132.95244140625L178.75,132.34954752604168L179.83333333333334,136.76402864583332L180.91666666666666,138.72631640625L182,139.733650390625L183.08333333333334,137.80601236979166L184.16666666666669,140.22083268229167L185.25,139.068236328125L186.33333333333334,135.45875325520834L187.41666666666666,135.80490299479166L188.5,135.58645898437499L189.58333333333331,139.32051888020834L190.66666666666666,140.10326692708333L191.75,142.90943229166666L192.83333333333334,141.56527734374998L193.91666666666666,140.71769140625L195,141.97359960937501L196.08333333333334,138.689638671875L197.16666666666666,136.36961263020834L198.25,139.54846549479169L199.33333333333334,144.77518750000002L200.41666666666669,141.45008723958333L201.5,139.831689453125L202.58333333333334,140.99454166666666L203.66666666666666,144.38836197916666L204.75,138.94719401041667L205.83333333333331,143.26531640625L206.91666666666666,143.88802669270834L208,146.71621028645833L209.08333333333334,139.38918098958334L210.16666666666666,142.68310807291667L211.25,146.804978515625L212.33333333333334,144.959619140625L213.41666666666666,139.18151432291666L214.5,143.9331640625L215.58333333333334,142.078939453125L216.66666666666669,143.901701171875L217.75,145.759923828125L218.83333333333334,145.86016471354168L219.91666666666666,147.457703125L221,139.51456901041666L222.08333333333331,144.873400390625L223.16666666666666,145.65070182291666L224.25,142.51773958333334L225.33333333333334,141.01766080729166L226.41666666666666,145.38016731770833L227.5,148.36236263020834L228.58333333333334,146.88070963541668L229.66666666666666,145.35397721354167L230.75,144.338357421875L231.83333333333334,143.519626953125L232.91666666666669,142.1781953125L234,141.58625260416667L235.08333333333334,143.41898046875L236.16666666666666,143.95657291666666L237.25,146.381533203125L238.33333333333331,149.17976041666665L239.41666666666666,148.539087890625L240.5,148.29810416666666L241.58333333333334,147.88798567708332L242.66666666666666,148.86038020833334L243.75,145.67416861979166L244.83333333333334,147.796494140625L245.91666666666666,147.530537109375L247,151.82275911458333L248.08333333333334,150.194453125" style="fill: none;" fill="none"></path></g></g></g></g></g></g><g transform="translate(70, 178)" clip-path="url(#clip_1)"><clipPath id="clip_1"><rect width="260" height="22"></rect></clipPath><g><g><line x1="0" y1="0" x2="0" y2="5" style="visibility: inherit;" fill="rgb(0, 0, 0)" stroke="rgb(204, 204, 204)" stroke-width="1px"></line><line x1="21.666666666666664" y1="0" x2="21.666666666666664" y2="5" style="visibility: inherit;" fill="rgb(0, 0, 0)" stroke="rgb(204, 204, 204)" stroke-width="1px"></line><line x1="43.33333333333333" y1="0" x2="43.33333333333333" y2="5" style="visibility: inherit;" fill="rgb(0, 0, 0)" stroke="rgb(204, 204, 204)" stroke-width="1px"></line><line x1="65" y1="0" x2="65" y2="5" style="visibility: inherit;" fill="rgb(0, 0, 0)" stroke="rgb(204, 204, 204)" stroke-width="1px"></line><line x1="86.66666666666666" y1="0" x2="86.66666666666666" y2="5" style="visibility: inherit;" fill="rgb(0, 0, 0)" stroke="rgb(204, 204, 204)" stroke-width="1px"></line><line x1="108.33333333333334" y1="0" x2="108.33333333333334" y2="5" style="visibility: inherit;" fill="rgb(0, 0, 0)" stroke="rgb(204, 204, 204)" stroke-width="1px"></line><line x1="130" y1="0" x2="130" y2="5" style="visibility: inherit;" fill="rgb(0, 0, 0)" stroke="rgb(204, 204, 204)" stroke-width="1px"></line><line x1="151.66666666666669" y1="0" x2="151.66666666666669" y2="5" style="visibility: inherit;" fill="rgb(0, 0, 0)" stroke="rgb(204, 204, 204)" stroke-width="1px"></line><line x1="173.33333333333331" y1="0" x2="173.33333333333331" y2="5" style="visibility: inherit;" fill="rgb(0, 0, 0)" stroke="rgb(204, 204, 204)" stroke-width="1px"></line><line x1="195" y1="0" x2="195" y2="5" style="visibility: inherit;" fill="rgb(0, 0, 0)" stroke="rgb(204, 204, 204)" stroke-width="1px"></line><line x1="216.66666666666669" y1="0" x2="216.66666666666669" y2="5" style="visibility: inherit;" fill="rgb(0, 0, 0)" stroke="rgb(204, 204, 204)" stroke-width="1px"></line><line x1="238.33333333333331" y1="0" x2="238.33333333333331" y2="5" style="visibility: inherit;" fill="rgb(0, 0, 0)" stroke="rgb(204, 204, 204)" stroke-width="1px"></line><line x1="260" y1="0" x2="260" y2="5" style="visibility: inherit;" fill="rgb(0, 0, 0)" stroke="rgb(204, 204, 204)" stroke-width="1px"></line></g><g transform="translate(0, 8)"><text x="0" y="0" dx="0em" dy="0.95em" style="text-anchor: middle; visibility: hidden; font-family: &quot;Helvetica Neue&quot;, sans-serif; font-size: 12px; font-weight: 200;" fill="rgb(50, 49, 63)" stroke="none" stroke-width="1px">-20</text><text x="21.666666666666664" y="0" dx="0em" dy="0.95em" style="text-anchor: middle; visibility: inherit; font-family: &quot;Helvetica Neue&quot;, sans-serif; font-size: 12px; font-weight: 200;" fill="rgb(50, 49, 63)" stroke="none" stroke-width="1px">0</text><text x="43.33333333333333" y="0" dx="0em" dy="0.95em" style="text-anchor: middle; visibility: hidden; font-family: &quot;Helvetica Neue&quot;, sans-serif; font-size: 12px; font-weight: 200;" fill="rgb(50, 49, 63)" stroke="none" stroke-width="1px">20</text><text x="65" y="0" dx="0em" dy="0.95em" style="text-anchor: middle; visibility: inherit; font-family: &quot;Helvetica Neue&quot;, sans-serif; font-size: 12px; font-weight: 200;" fill="rgb(50, 49, 63)" stroke="none" stroke-width="1px">40</text><text x="86.66666666666666" y="0" dx="0em" dy="0.95em" style="text-anchor: middle; visibility: hidden; font-family: &quot;Helvetica Neue&quot;, sans-serif; font-size: 12px; font-weight: 200;" fill="rgb(50, 49, 63)" stroke="none" stroke-width="1px">60</text><text x="108.33333333333334" y="0" dx="0em" dy="0.95em" style="text-anchor: middle; visibility: inherit; font-family: &quot;Helvetica Neue&quot;, sans-serif; font-size: 12px; font-weight: 200;" fill="rgb(50, 49, 63)" stroke="none" stroke-width="1px">80</text><text x="130" y="0" dx="0em" dy="0.95em" style="text-anchor: middle; visibility: hidden; font-family: &quot;Helvetica Neue&quot;, sans-serif; font-size: 12px; font-weight: 200;" fill="rgb(50, 49, 63)" stroke="none" stroke-width="1px">100</text><text x="151.66666666666669" y="0" dx="0em" dy="0.95em" style="text-anchor: middle; visibility: inherit; font-family: &quot;Helvetica Neue&quot;, sans-serif; font-size: 12px; font-weight: 200;" fill="rgb(50, 49, 63)" stroke="none" stroke-width="1px">120</text><text x="173.33333333333331" y="0" dx="0em" dy="0.95em" style="text-anchor: middle; visibility: hidden; font-family: &quot;Helvetica Neue&quot;, sans-serif; font-size: 12px; font-weight: 200;" fill="rgb(50, 49, 63)" stroke="none" stroke-width="1px">140</text><text x="195" y="0" dx="0em" dy="0.95em" style="text-anchor: middle; visibility: inherit; font-family: &quot;Helvetica Neue&quot;, sans-serif; font-size: 12px; font-weight: 200;" fill="rgb(50, 49, 63)" stroke="none" stroke-width="1px">160</text><text x="216.66666666666669" y="0" dx="0em" dy="0.95em" style="text-anchor: middle; visibility: hidden; font-family: &quot;Helvetica Neue&quot;, sans-serif; font-size: 12px; font-weight: 200;" fill="rgb(50, 49, 63)" stroke="none" stroke-width="1px">180</text><text x="238.33333333333331" y="0" dx="0em" dy="0.95em" style="text-anchor: middle; visibility: inherit; font-family: &quot;Helvetica Neue&quot;, sans-serif; font-size: 12px; font-weight: 200;" fill="rgb(50, 49, 63)" stroke="none" stroke-width="1px">200</text><text x="260" y="0" dx="0em" dy="0.95em" style="text-anchor: middle; visibility: hidden; font-family: &quot;Helvetica Neue&quot;, sans-serif; font-size: 12px; font-weight: 200;" fill="rgb(50, 49, 63)" stroke="none" stroke-width="1px">220</text></g><line x1="0" y1="0" x2="260" y2="0" fill="rgb(0, 0, 0)" stroke="rgb(204, 204, 204)" stroke-width="1px"></line></g></g></g></g></svg>