<svg viewBox="0 0 330 200" xmlns="http://www.w3.org/2000/svg"><g><g><g><g><g><line x1="70" y1="178" x2="65" y2="178" style="visibility: inherit;" fill="rgb(0, 0, 0)" stroke="rgb(204, 204, 204)" stroke-width="1px"></line><line x1="70" y1="161.8181818181818" x2="65" y2="161.8181818181818" style="visibility: inherit;" fill="rgb(0, 0, 0)" stroke="rgb(204, 204, 204)" stroke-width="1px"></line><line x1="70" y1="145.63636363636363" x2="65" y2="145.63636363636363" style="visibility: inherit;" fill="rgb(0, 0, 0)" stroke="rgb(204, 204, 204)" stroke-width="1px"></line><line x1="70" y1="129.45454545454547" x2="65" y2="129.45454545454547" style="visibility: inherit;" fill="rgb(0, 0, 0)" stroke="rgb(204, 204, 204)" stroke-width="1px"></line><line x1="70" y1="113.27272727272727" x2="65" y2="113.27272727272727" style="visibility: inherit;" fill="rgb(0, 0, 0)" stroke="rgb(204, 204, 204)" stroke-width="1px"></line><line x1="70" y1="97.0909090909091" x2="65" y2="97.0909090909091" style="visibility: inherit;" fill="rgb(0, 0, 0)" stroke="rgb(204, 204, 204)" stroke-width="1px"></line><line x1="70" y1="80.90909090909092" x2="65" y2="80.90909090909092" style="visibility: inherit;" fill="rgb(0, 0, 0)" stroke="rgb(204, 204, 204)" stroke-width="1px"></line><line x1="70" y1="64.72727272727273" x2="65" y2="64.72727272727273" style="visibility: inherit;" fill="rgb(0, 0, 0)" stroke="rgb(204, 204, 204)" stroke-width="1px"></line><line x1="70" y1="48.54545454545453" x2="65" y2="48.54545454545453" style="visibility: inherit;" fill="rgb(0, 0, 0)" stroke="rgb(204, 204, 204)" stroke-width="1px"></line><line x1="70" y1="32.363636363636346" x2="65" y2="32.363636363636346" style="visibility: inherit;" fill="rgb(0, 0, 0)" stroke="rgb(204, 204, 204)" stroke-width="1px"></line><line x1="70" y1="16.181818181818187" x2="65" y2="16.181818181818187" style="visibility: inherit;" fill="rgb(0, 0, 0)" stroke="rgb(204, 204, 204)" stroke-width="1px"></line><line x1="70" y1="0" x2="65" y2="0" style="visibility: inherit;" fill="rgb(0, 0, 0)" stroke="rgb(204, 204, 204)" stroke-width="1px"></line></g><g transform="translate(60, 0)"><text x="0" y="178" dx="0em" dy="0.3em" style="text-anchor: end; visibility: hidden; font-family: &quot;Helvetica Neue&quot;, sans-serif; font-size: 12px; font-weight: 200;" fill="rgb(50, 49, 63)" stroke="none" stroke-width="1px">5.7e+4</text><text x="0" y="161.8181818181818" dx="0em" dy="0.3em" style="text-anchor: end; visibility: inherit; font-family: &quot;Helvetica Neue&quot;, sans-serif; font-size: 12px; font-weight: 200;" fill="rgb(50, 49, 63)" stroke="none" stroke-width="1px">5.8e+4</text><text x="0" y="145.63636363636363" dx="0em" dy="0.3em" style="text-anchor: end; visibility: hidden; font-family: &quot;Helvetica Neue&quot;, sans-serif; font-size: 12px; font-weight: 200;" fill="rgb(50, 49, 63)" stroke="none" stroke-width="1px">5.9e+4</text><text x="0" y="129.45454545454547" dx="0em" dy="0.3em" style="text-anchor: end; visibility: inherit; font-family: &quot;Helvetica Neue&quot;, sans-serif; font-size: 12px; font-weight: 200;" fill="rgb(50, 49, 63)" stroke="none" stroke-width="1px">6e+4</text><text x="0" y="113.27272727272727" dx="0em" dy="0.3em" style="text-anchor: end; visibility: hidden; font-family: &quot;Helvetica Neue&quot;, sans-serif; font-size: 12px; font-weight: 200;" fill="rgb(50, 49, 63)" stroke="none" stroke-width="1px">6.1e+4</text><text x="0" y="97.0909090909091" dx="0em" dy="0.3em" style="text-anchor: end; visibility: inherit; font-family: &quot;Helvetica Neue&quot;, sans-serif; font-size: 12px; font-weight: 200;" fill="rgb(50, 49, 63)" stroke="none" stroke-width="1px">6.2e+4</text><text x="0" y="80.90909090909092" dx="0em" dy="0.3em" style="text-anchor: end; visibility: hidden; font-family: &quot;Helvetica Neue&quot;, sans-serif; font-size: 12px; font-weight: 200;" fill="rgb(50, 49, 63)" stroke="none" stroke-width="1px">6.3e+4</text><text x="0" y="64.72727272727273" dx="0em" dy="0.3em" style="text-anchor: end; visibility: inherit; font-family: &quot;Helvetica Neue&quot;, sans-serif; font-size: 12px; font-weight: 200;" fill="rgb(50, 49, 63)" stroke="none" stroke-width="1px">6.4e+4</text><text x="0" y="48.54545454545453" dx="0em" dy="0.3em" style="text-anchor: end; visibility: hidden; font-family: &quot;Helvetica Neue&quot;, sans-serif; font-size: 12px; font-weight: 200;" fill="rgb(50, 49, 63)" stroke="none" stroke-width="1px">6.5e+4</text><text x="0" y="32.363636363636346" dx="0em" dy="0.3em" style="text-anchor: end; visibility: inherit; font-family: &quot;Helvetica Neue&quot;, sans-serif; font-size: 12px; font-weight: 200;" fill="rgb(50, 49, 63)" stroke="none" stroke-width="1px">6.6e+4</text><text x="0" y="16.181818181818187" dx="0em" dy="0.3em" style="text-anchor: end; visibility: hidden; font-family: &quot;Helvetica Neue&quot;, sans-serif; font-size: 12px; font-weight: 200;" fill="rgb(50, 49, 63)" stroke="none" stroke-width="1px">6.7e+4</text><text x="0" y="0" dx="0em" dy="0.3em" style="text-anchor: end; visibility: hidden; font-family: &quot;Helvetica Neue&quot;, sans-serif; font-size: 12px; font-weight: 200;" fill="rgb(50, 49, 63)" stroke="none" stroke-width="1px">6.8e+4</text></g><line x1="70" y1="0" x2="70" y2="178" fill="rgb(0, 0, 0)" stroke="rgb(204, 204, 204)" stroke-width="1px"></line></g></g><g transform="translate(70, 0)" clip-path="url(#clip_0)"><clipPath id="clip_0"><rect width="260" height="178"></rect></clipPath><g><g><g><line x1="0" y1="0" x2="0" y2="178" fill="rgb(0, 0, 0)" stroke="rgb(60, 60, 60)" stroke-width="1px" opacity="0.25"></line><line x1="32.5" y1="0" x2="32.5" y2="178" fill="rgb(0, 0, 0)" stroke="rgb(60, 60, 60)" stroke-width="1px" opacity="0.25"></line><line x1="65" y1="0" x2="65" y2="178" fill="rgb(0, 0, 0)" stroke="rgb(60, 60, 60)" stroke-width="1px" opacity="0.25"></line><line x1="97.5" y1="0" x2="97.5" y2="178" fill="rgb(0, 0, 0)" stroke="rgb(60, 60, 60)" stroke-width="1px" opacity="0.25"></line><line x1="130" y1="0" x2="130" y2="178" fill="rgb(0, 0, 0)" stroke="rgb(60, 60, 60)" stroke-width="1px" opacity="0.25"></line><line x1="162.5" y1="0" x2="162.5" y2="178" fill="rgb(0, 0, 0)" stroke="rgb(60, 60, 60)" stroke-width="1px" opacity="0.25"></line><line x1="195" y1="0" x2="195" y2="178" fill="rgb(0, 0, 0)" stroke="rgb(60, 60, 60)" stroke-width="1px" opacity="0.25"></line><line x1="227.5" y1="0" x2="227.5" y2="178" fill="rgb(0, 0, 0)" stroke="rgb(60, 60, 60)" stroke-width="1px" opacity="0.25"></line><line x1="260" y1="0" x2="260" y2="178" fill="rgb(0, 0, 0)" stroke="rgb(60, 60, 60)" stroke-width="1px" opacity="0.25"></line></g><g><line x1="0" y1="178" x2="260" y2="178" fill="rgb(0, 0, 0)" stroke="rgb(60, 60, 60)" stroke-width="1px" opacity="0.25"></line><line x1="0" y1="161.8181818181818" x2="260" y2="161.8181818181818" fill="rgb(0, 0, 0)" stroke="rgb(60, 60, 60)" stroke-width="1px" opacity="0.25"></line><line x1="0" y1="145.63636363636363" x2="260" y2="145.63636363636363" fill="rgb(0, 0, 0)" stroke="rgb(60, 60, 60)" stroke-width="1px" opacity="0.25"></line><line x1="0" y1="129.45454545454547" x2="260" y2="129.45454545454547" fill="rgb(0, 0, 0)" stroke="rgb(60, 60, 60)" stroke-width="1px" opacity="0.25"></line><line x1="0" y1="113.27272727272727" x2="260" y2="113.27272727272727" fill="rgb(0, 0, 0)" stroke="rgb(60, 60, 60)" stroke-width="1px" opacity="0.25"></line><line x1="0" y1="97.0909090909091" x2="260" y2="97.0909090909091" fill="rgb(0, 0, 0)" stroke="rgb(60, 60, 60)" stroke-width="1px" opacity="0.25"></line><line x1="0" y1="80.90909090909092" x2="260" y2="80.90909090909092" fill="rgb(0, 0, 0)" stroke="rgb(60, 60, 60)" stroke-width="1px" opacity="0.25"></line><line x1="0" y1="64.72727272727273" x2="260" y2="64.72727272727273" fill="rgb(0, 0, 0)" stroke="rgb(60, 60, 60)" stroke-width="1px" opacity="0.25"></line><line x1="0" y1="48.54545454545453" x2="260" y2="48.54545454545453" fill="rgb(0, 0, 0)" stroke="rgb(60, 60, 60)" stroke-width="1px" opacity="0.25"></line><line x1="0" y1="32.363636363636346" x2="260" y2="32.363636363636346" fill="rgb(0, 0, 0)" stroke="rgb(60, 60, 60)" stroke-width="1px" opacity="0.25"></line><line x1="0" y1="16.181818181818187" x2="260" y2="16.181818181818187" fill="rgb(0, 0, 0)" stroke="rgb(60, 60, 60)" stroke-width="1px" opacity="0.25"></line><line x1="0" y1="0" x2="260" y2="0" fill="rgb(0, 0, 0)" stroke="rgb(60, 60, 60)" stroke-width="1px" opacity="0.25"></line></g></g></g><g><g><line x1="0" y1="1100.3636363636365" x2="260" y2="1100.3636363636365" fill="rgb(0, 0, 0)" stroke="rgb(153, 153, 153)" stroke-width="1.5px"></line></g></g><g><g><line x1="32.5" y1="0" x2="32.5" y2="178" fill="rgb(0, 0, 0)" stroke="rgb(153, 153, 153)" stroke-width="1.5px"></line></g></g><g><g><g><g><g><path stroke="rgb(255, 112, 67)" stroke-width="2px" d="M39,-5.413807595594108L39.65,2.1790388712580864L40.3,8.695095676986057L40.95,13.771002143318839L41.6,17.010295944206348L42.25,21.04458272862007L42.9,24.25448558013261L43.550000000000004,27.65985481086736L44.2,32.32639099644811L44.849999999999994,33.79836398371509L45.5,38.114106246272115L46.15,40.77555161906989L46.8,43.08248043995607L47.449999999999996,43.79656920441664L48.1,45.51319782352908L48.75,49.35964741454859L49.4,49.34000888317462L50.050000000000004,52.55141838155825L50.7,54.37606448532868L51.35,54.78618366822741L52,55.47384182624123L52.650000000000006,54.24785045271777L53.3,55.941728250243784L53.949999999999996,59.253749260948695L54.6,59.41514700252549L55.25,57.53057255707698L55.9,60.37519497230505L56.55,62.3069462519196L57.2,63.70177116335037L57.85,65.09628144987427L58.5,65.80004387048908L59.15,68.10637064158503L59.800000000000004,70.12355846507893L60.45,71.98056235209638L61.099999999999994,73.12783627501344L61.75,73.86150971959933L62.4,70.05064901343523L63.05,69.20633713531493L63.699999999999996,71.86493892895209L64.35,72.57199631192238L65,69.20761199168263L65.65,66.66941861545669L66.3,69.73705685109748L66.95,72.50994007657049L67.60000000000001,76.1853734209446L68.25,75.8402777457484L68.9,79.12973198835886L69.55,80.6225011248337L70.2,79.66660862944568L70.85000000000001,81.68942057539485L71.5,83.01994552705514L72.15,86.31708720259684L72.80000000000001,84.54933186701267L73.44999999999999,85.83420792702574L74.1,85.03499151757907L74.75,85.83923610372923L75.39999999999999,84.73239961678314L76.05,85.75254687234255L76.7,86.94113778249647L77.35,88.28846789677063L78,87.59342335169869L78.64999999999999,88.51670628374649L79.3,91.198104736157L79.95,91.86766511442161L80.6,91.27121071638024L81.25,92.18421762301006L81.9,92.42244335789698L82.55,92.03507027610178L83.2,92.2073688702065L83.85000000000001,92.88368552666941L84.5,94.6031610319108L85.15,94.26561167596459L85.8,94.03392950557878L86.45,94.15398099880177L87.10000000000001,94.67091075837206L87.75,93.65757287547774L88.4,94.92984685028667L89.05000000000001,94.5001308374447L89.69999999999999,94.78616202519414L90.35,94.24679210148003L91,94.81327128361526L91.64999999999999,97.03773379289636L92.3,96.41906357119234L92.95,95.53826058589723L93.6,95.54041601062926L94.25,96.07242233365032L94.89999999999999,96.72603351382658L95.55,97.40904311965961L96.2,98.12155001952304L96.85,98.21103114807747L97.5,98.95500079111925L98.15,97.85290899739887L98.8,98.53846159162117L99.45,97.75817922770004L100.10000000000001,100.50467969571093L100.75,101.19967315833563L101.4,103.033033440456L102.05,103.84541779154637L102.7,103.88946658401878L103.35000000000001,104.7838734163204L104,105.43260189070124L104.65,103.8593636912389L105.30000000000001,103.37511082837959L105.94999999999999,100.78853609930053L106.6,102.29735688685304L107.25,102.47429055256634L107.89999999999999,103.17414649063073L108.55,105.45876175801482L109.2,104.90702978208168L109.85,106.42461161924898L110.5,107.81581128973126L111.14999999999999,106.95020126247519L111.8,106.82031138248512L112.45,107.67164364767287L113.1,110.72673050678556L113.75,111.44733319043495L114.4,113.20248258471557L115.05,112.29436114173834L115.7,111.57219623049752L116.35000000000001,113.11727626102581L117,114.51660581343367L117.65,113.98909274942383L118.3,114.15047951329062L118.95,114.64991015115618L119.60000000000001,115.16655660205734L120.25,114.44566151805256L120.9,112.88740088810415L121.55000000000001,112.31901326013518L122.19999999999999,110.0309539788083L122.85,111.73706329637591L123.5,112.90907064828015L124.14999999999999,113.39485716169541L124.8,111.22456884247174L125.45,110.55515551002856L126.1,111.4032495560171L126.75,111.6490250177012L127.39999999999999,113.72280932880248L128.05,115.82335093819054L128.7,117.52323982427794L129.35,117.70202201956681L130,118.86303110946733L130.64999999999998,119.05668542704404L131.3,117.59783085849918L131.95,116.87356527646313L132.6,116.3436849045142L133.25,117.65516463589029L133.9,118.78361525880683L134.54999999999998,120.68519415528414L135.20000000000002,121.23960115226143L135.85,121.20238966862945L136.5,121.72809544890485L137.15,120.61051778070657L137.8,118.9275961797876L138.45,119.30497901469084L139.1,121.81216013608713L139.75,121.86551596801596L140.4,121.19131952399147L141.04999999999998,121.29422807803124L141.70000000000002,122.83691298318232L142.35,121.388196085364L143,122.40323753758204L143.65,123.28399053391294L144.3,125.04655880898417L144.95,122.90685062629953L145.60000000000002,123.06037571668872L146.25,124.95112514592226L146.89999999999998,125.28032707618969L147.55,122.95649340480477L148.2,123.63564036106467L148.85,123.23401234163876L149.5,123.78842246180149L150.15,124.93192932935352L150.79999999999998,125.66177492715752L151.45000000000002,126.7967899562945L152.1,124.01170408741302L152.75,124.6790517138115L153.4,125.41864636919594L154.05,124.49529236697211L154.7,123.28670013609232L155.35,124.46518400210992L156,126.47359591262955L156.65,127.03210357030507L157.29999999999998,126.70099765354675L157.95000000000002,126.05915455803711L158.6,125.31678449618587L159.25,124.28601047043881L159.9,123.4092437822632L160.55,123.68291956481251L161.2,124.08171082979655L161.85000000000002,125.37915007742346L162.5,127.37865822827229L163.14999999999998,128.29879692559965L163.8,128.74572360990516L164.45,128.83491882503404L165.1,129.3127535677477L165.75,128.2091075383758L166.4,128.473025602571L167.04999999999998,128.51532246381532L167.70000000000002,130.41367018283466L168.35,130.84214529151896L169,130.3051581976386L169.65,130.68371452085586L170.3,130.91264348524075L170.95,131.01472955705358L171.6,130.55644370014133L172.25,132.77744178826663L172.9,132.61375342523277L173.54999999999998,132.03177989604887L174.20000000000002,132.47613697172017L174.85,131.81902223985026L175.5,130.33554004845564L176.15,131.0610788586188L176.8,132.015029417444L177.45,131.58660486637552L178.10000000000002,131.68919104482532L178.75,131.79314417234977L179.39999999999998,131.27383025340978L180.05,132.59733877704576L180.7,133.16259758440918L181.35,133.85234207337282L182,134.27617598266016L182.65,133.24344024868702L183.29999999999998,135.27685846739405L183.95000000000002,134.85981508043648L184.6,134.43722740053462L185.25,133.71821996304803L185.9,133.14967459146507L186.55,134.2978308912426L187.2,133.91414825065462L187.85,133.79334292766552L188.5,133.64753587023566L189.15,132.2860115789596L189.79999999999998,134.85939018601212L190.45000000000002,134.30101990706174L191.1,133.46097330787336L191.75,132.45940500745127L192.4,133.5351279476525L193.05,135.68084381404606L193.7,134.2914466293367L194.35000000000002,135.1878975230565L195,134.54487459337926L195.64999999999998,134.13349861966398L196.3,133.21985570588933L196.95,133.80624296898816L197.6,134.961148622302L198.25,135.92025763929024L198.9,134.3464741858469L199.54999999999998,135.2550728637809L200.20000000000002,135.80989059326853L200.85,138.232637765052L201.5,137.155904818122L202.15,138.05307953860043L202.8,138.067017609524L203.45,138.08182789525995L204.1,137.3117112257924L204.75,137.77410344002098L205.4,138.74786263219448L206.04999999999998,138.6744283747712L206.70000000000002,138.1849379907718L207.35,137.4595431921903L208,136.82006142667785L208.65,138.24689026509753L209.3,138.046517113604L209.95,138.69495487043517L210.60000000000002,140.86515530862465L211.25,138.653014491993L211.89999999999998,139.2708856838321L212.55,138.9114797057539L213.2,138.679679584816L213.85,139.38334354634418L214.5,139.1708101050793L215.15,139.55837754032024L215.79999999999998,139.4450569219194L216.45000000000002,138.99565403951524L217.1,137.91234498052734L217.75,137.90733142013448L218.4,139.2404863520807L219.05,139.86660175443018L219.7,141.48202582538542L220.35,141.85768566568578L221,141.1445866835025L221.65,141.44882814646513L222.29999999999998,140.50269120606094L222.95000000000002,139.67273716681842L223.6,140.2489593455456L224.25,139.57298782323642L224.9,139.6957665575781L225.55,141.07616618454685L226.2,141.6787707334554L226.85000000000002,143.03963658780046L227.5,142.29299246404395L228.14999999999998,140.60001735342632L228.8,140.8566035938739L229.45,141.27937579268803L230.1,139.48968002106733L230.75,141.70064522854943L231.4,141.27781810303878L232.04999999999998,141.71847353227787L232.70000000000002,142.24539150573034L233.35,142.98146047161998L234,142.9720589534266L234.65,143.37930724705586L235.3,142.23806275732437" style="fill: none;" fill="none"></path></g></g></g></g><g opacity="0.2"><g><g><g><path stroke="rgb(255, 112, 67)" stroke-width="2px" d="M37.699999999999996,-8.246026988636345L38.35,2.8581136363636404L39,5.884998579545453L39.65,13.526988636363654L40.3,18.44790482954545L40.95,21.37491761363637L41.6,21.865428977272728L42.25,27.093167613636354L42.9,29.067981534090904L43.550000000000004,32.76704403409093L44.2,39.325484375L44.849999999999994,36.00618892045455L45.5,44.587482954545436L46.15,44.76763210227273L46.8,46.542828125L47.449999999999996,44.86769389204545L48.1,48.08812855113635L48.75,55.12930539772728L49.4,49.31055113636364L50.050000000000004,57.368527698863645L50.7,57.11303196022726L51.35,55.40136221590909L52,56.505328835227274L52.650000000000006,52.408863636363634L53.3,58.482544744318176L53.949999999999996,64.22178053977272L54.6,59.65724360795454L55.25,54.703710937500006L55.9,64.64212855113635L56.55,65.2045731534091L57.2,65.79400852272728L57.85,67.188046875L58.5,66.85568749999999L59.15,71.56586079545454L59.800000000000004,73.14934019886364L60.45,74.76606818181818L61.099999999999994,74.8487471590909L61.75,74.96201988636363L62.4,64.33435795454545L63.05,67.93986931818182L63.699999999999996,75.85284161931818L64.35,73.63258238636364L65,64.16103551136362L65.65,62.86212855113635L66.3,74.33851420454546L66.95,76.66926491477274L67.60000000000001,81.6985234375L68.25,75.32263423295454L68.9,84.06391335227273L69.55,82.86165482954544L70.2,78.23276988636363L70.85000000000001,84.72363849431818L71.5,85.01573295454546L72.15,91.2627997159091L72.80000000000001,81.89769886363636L73.44999999999999,87.76152201704546L74.1,83.8361669034091L74.75,87.04560298295455L75.39999999999999,83.07214488636363L76.05,87.28276775568182L76.7,88.72402414772726L77.35,90.30946306818181L78,86.5508565340909L78.64999999999999,89.90163068181818L79.3,95.22020241477273L79.95,92.87200568181818L80.6,90.37652911931818L81.25,93.55372798295454L81.9,92.77978196022727L82.55,91.4540106534091L83.2,92.46581676136364L83.85000000000001,93.89816051136364L84.5,97.18237428977272L85.15,93.75928764204545L85.8,93.68640624999999L86.45,94.33405823863637L87.10000000000001,95.44630539772727L87.75,92.13756605113636L88.4,96.8382578125L89.05000000000001,93.85555681818182L89.69999999999999,95.21520880681818L90.35,93.4377372159091L91,95.66299005681817L91.64999999999999,100.37442755681819L92.3,95.49105823863636L92.95,94.21705610795455L93.6,95.54364914772728L94.25,96.87043181818183L94.89999999999999,97.7064502840909L95.55,98.4335575284091L96.2,99.19031036931818L96.85,98.3452528409091L97.5,100.07095525568182L98.15,96.19977130681818L98.8,99.56679048295454L99.45,96.58775568181818L100.10000000000001,104.62443039772727L100.75,102.24216335227273L101.4,105.78307386363636L102.05,105.06399431818181L102.7,103.95553977272728L103.35000000000001,106.12548366477273L104,106.40569460227272L104.65,101.49950639204546L105.30000000000001,102.64873153409091L105.94999999999999,96.90867400568182L106.6,104.56058806818181L107.25,102.73969105113636L107.89999999999999,104.22393039772727L108.55,108.88568465909091L109.2,104.07943181818182L109.85,108.700984375L110.5,109.90261079545454L111.14999999999999,105.65178622159091L111.8,106.6254765625L112.45,108.94864204545455L113.1,115.30936079545455L113.75,112.52823721590909L114.4,115.83520667613635L115.05,110.93217897727273L115.7,110.48894886363637L116.35000000000001,115.43489630681819L117,116.61560014204545L117.65,113.19782315340909L118.3,114.39255965909092L118.95,115.39905610795455L119.60000000000001,115.94152627840909L120.25,113.36431889204546L120.9,110.55000994318182L121.55000000000001,111.46643181818182L122.19999999999999,106.59886505681818L122.85,114.29622727272728L123.5,114.66708167613636L124.14999999999999,114.12353693181818L124.8,107.96913636363637L125.45,109.55103551136364L126.1,112.67539062499999L126.75,112.01768821022728L127.39999999999999,116.83348579545455L128.05,118.97416335227274L128.7,120.0730731534091L129.35,117.97019531250001L130,120.60454474431819L130.64999999999998,119.34716690340909L131.3,115.40954900568181L131.95,115.78716690340909L132.6,115.5488643465909L133.25,119.62238423295454L133.9,120.47629119318182L134.54999999999998,123.5375625L135.20000000000002,122.07121164772727L135.85,121.14657244318182L136.5,122.51665411931819L137.15,118.93415127840909L137.8,116.40321377840908L138.45,119.87105326704545L139.1,125.57293181818181L139.75,121.9455497159091L140.4,120.18002485795455L141.04999999999998,121.44859090909091L141.70000000000002,125.15094034090909L142.35,119.21512073863636L143,123.92579971590908L143.65,124.60512002840909L144.3,127.69041122159092L144.95,119.69728835227272L145.60000000000002,123.29066335227273L146.25,127.78724928977272L146.89999999999998,125.77412997159091L147.55,119.47074289772726L148.2,124.65436079545455L148.85,122.6315703125L149.5,124.62003764204545L150.15,126.64718963068182L150.79999999999998,126.75654332386364L151.45000000000002,128.4993125L152.1,119.83407528409091L152.75,125.6800731534091L153.4,126.52803835227272L154.05,123.11026136363637L154.7,121.47381178977272L155.35,126.23290980113637L156,129.48621377840908L156.65,127.86986505681818L157.29999999999998,126.2043387784091L157.95000000000002,125.09638991477271L158.6,124.2032294034091L159.25,122.73984943181819L159.9,122.09409375L160.55,124.09343323863636L161.2,124.67989772727273L161.85000000000002,127.32530894886364L162.5,130.37792045454546L163.14999999999998,129.67900497159093L163.8,129.41611363636363L164.45,128.96871164772728L165.1,130.0295056818182L165.75,126.5536384943182L166.4,128.86890269886362L167.04999999999998,128.5787677556818L167.70000000000002,133.26119176136365L168.35,131.48485795454548L169,129.49967755681817L169.65,131.25154900568182L170.3,131.2560369318182L170.95,131.16785866477272L171.6,129.86901491477272L172.25,136.10893892045453L172.9,132.3682208806818L173.54999999999998,131.15881960227273L174.20000000000002,133.14267258522727L174.85,130.83335014204545L175.5,128.11031676136363L176.15,132.14938707386364L176.8,133.4459552556818L177.45,130.94396803977273L178.10000000000002,131.8430703125L178.75,131.94907386363636L179.39999999999998,130.494859375L180.05,134.5826015625L180.7,134.01048579545454L181.35,134.8869588068182L182,134.91192684659092L182.65,131.69433664772725L183.29999999999998,138.32698579545453L183.95000000000002,134.23425L184.6,133.80334588068183L185.25,132.6397088068182L185.9,132.29685653409092L186.55,136.0200653409091L187.2,133.33862428977272L187.85,133.61213494318181L188.5,133.42882528409092L189.15,130.24372514204543L189.79999999999998,138.7194580965909L190.45000000000002,133.46346448863636L191.1,132.2009034090909L191.75,130.95705255681818L192.4,135.14871235795454L193.05,138.89941761363636L193.7,132.20735085227273L194.35000000000002,136.53257386363634L195,133.58034019886364L195.64999999999998,133.51643465909092L196.3,131.84939133522727L196.95,134.68582386363636L197.6,136.69350710227272L198.25,137.3589211647727L198.9,131.98579900568183L199.54999999999998,136.6179708806818L200.20000000000002,136.6421171875L200.85,141.86675852272728L201.5,135.54080539772727L202.15,139.39884161931818L202.8,138.08792471590908L203.45,138.10404332386364L204.1,136.1565362215909L204.75,138.46769176136365L205.4,140.20850142045455L206.04999999999998,138.56427698863638L206.70000000000002,137.45070241477273L207.35,136.3714509943182L208,135.8608387784091L208.65,140.38713352272728L209.3,137.74595738636364L209.95,139.6676115056818L210.60000000000002,144.1204559659091L211.25,135.33480326704546L211.89999999999998,140.19769247159093L212.55,138.37237073863636L213.2,138.3319794034091L213.85,140.43883948863635L214.5,138.85200994318183L215.15,140.13972869318184L215.79999999999998,139.27507599431817L216.45000000000002,138.3215497159091L217.1,136.28738139204546L217.75,137.89981107954546L218.4,141.24021875L219.05,140.80577485795453L219.7,143.90516193181818L220.35,142.42117542613636L221,140.0749382102273L221.65,141.9051903409091L222.29999999999998,139.08348579545455L222.95000000000002,138.42780610795455L223.6,141.11329261363636L224.25,138.55903053977272L224.9,139.8799346590909L225.55,143.146765625L226.2,142.58267755681817L226.85000000000002,145.08093536931818L227.5,141.17302627840908L228.14999999999998,138.0605546875L228.8,141.24148295454546L229.45,141.91353409090908L230.1,136.80513636363636L230.75,145.01709303977273L231.4,140.64357741477272L232.04999999999998,142.37945667613636L232.70000000000002,143.0357684659091L233.35,144.08556392045455L234,142.95795667613638L234.65,143.99017968750002L235.3,140.52619602272728" style="fill: none;" fill="none"></path></g></g></g></g></g></g><g transform="translate(70, 178)" clip-path="url(#clip_1)"><clipPath id="clip_1"><rect width="260" height="22"></rect></clipPath><g><g><line x1="0" y1="0" x2="0" y2="5" style="visibility: inherit;" fill="rgb(0, 0, 0)" stroke="rgb(204, 204, 204)" stroke-width="1px"></line><line x1="32.5" y1="0" x2="32.5" y2="5" style="visibility: inherit;" fill="rgb(0, 0, 0)" stroke="rgb(204, 204, 204)" stroke-width="1px"></line><line x1="65" y1="0" x2="65" y2="5" style="visibility: inherit;" fill="rgb(0, 0, 0)" stroke="rgb(204, 204, 204)" stroke-width="1px"></line><line x1="97.5" y1="0" x2="97.5" y2="5" style="visibility: inherit;" fill="rgb(0, 0, 0)" stroke="rgb(204, 204, 204)" stroke-width="1px"></line><line x1="130" y1="0" x2="130" y2="5" style="visibility: inherit;" fill="rgb(0, 0, 0)" stroke="rgb(204, 204, 204)" stroke-width="1px"></line><line x1="162.5" y1="0" x2="162.5" y2="5" style="visibility: inherit;" fill="rgb(0, 0, 0)" stroke="rgb(204, 204, 204)" stroke-width="1px"></line><line x1="195" y1="0" x2="195" y2="5" style="visibility: inherit;" fill="rgb(0, 0, 0)" stroke="rgb(204, 204, 204)" stroke-width="1px"></line><line x1="227.5" y1="0" x2="227.5" y2="5" style="visibility: inherit;" fill="rgb(0, 0, 0)" stroke="rgb(204, 204, 204)" stroke-width="1px"></line><line x1="260" y1="0" x2="260" y2="5" style="visibility: inherit;" fill="rgb(0, 0, 0)" stroke="rgb(204, 204, 204)" stroke-width="1px"></line></g><g transform="translate(0, 8)"><text x="0" y="0" dx="0em" dy="0.95em" style="text-anchor: middle; visibility: hidden; font-family: &quot;Helvetica Neue&quot;, sans-serif; font-size: 12px; font-weight: 200;" fill="rgb(50, 49, 63)" stroke="none" stroke-width="1px">-50</text><text x="32.5" y="0" dx="0em" dy="0.95em" style="text-anchor: middle; visibility: inherit; font-family: &quot;Helvetica Neue&quot;, sans-serif; font-size: 12px; font-weight: 200;" fill="rgb(50, 49, 63)" stroke="none" stroke-width="1px">0</text><text x="65" y="0" dx="0em" dy="0.95em" style="text-anchor: middle; visibility: inherit; font-family: &quot;Helvetica Neue&quot;, sans-serif; font-size: 12px; font-weight: 200;" fill="rgb(50, 49, 63)" stroke="none" stroke-width="1px">50</text><text x="97.5" y="0" dx="0em" dy="0.95em" style="text-anchor: middle; visibility: inherit; font-family: &quot;Helvetica Neue&quot;, sans-serif; font-size: 12px; font-weight: 200;" fill="rgb(50, 49, 63)" stroke="none" stroke-width="1px">100</text><text x="130" y="0" dx="0em" dy="0.95em" style="text-anchor: middle; visibility: inherit; font-family: &quot;Helvetica Neue&quot;, sans-serif; font-size: 12px; font-weight: 200;" fill="rgb(50, 49, 63)" stroke="none" stroke-width="1px">150</text><text x="162.5" y="0" dx="0em" dy="0.95em" style="text-anchor: middle; visibility: inherit; font-family: &quot;Helvetica Neue&quot;, sans-serif; font-size: 12px; font-weight: 200;" fill="rgb(50, 49, 63)" stroke="none" stroke-width="1px">200</text><text x="195" y="0" dx="0em" dy="0.95em" style="text-anchor: middle; visibility: inherit; font-family: &quot;Helvetica Neue&quot;, sans-serif; font-size: 12px; font-weight: 200;" fill="rgb(50, 49, 63)" stroke="none" stroke-width="1px">250</text><text x="227.5" y="0" dx="0em" dy="0.95em" style="text-anchor: middle; visibility: inherit; font-family: &quot;Helvetica Neue&quot;, sans-serif; font-size: 12px; font-weight: 200;" fill="rgb(50, 49, 63)" stroke="none" stroke-width="1px">300</text><text x="260" y="0" dx="0em" dy="0.95em" style="text-anchor: middle; visibility: hidden; font-family: &quot;Helvetica Neue&quot;, sans-serif; font-size: 12px; font-weight: 200;" fill="rgb(50, 49, 63)" stroke="none" stroke-width="1px">350</text></g><line x1="0" y1="0" x2="260" y2="0" fill="rgb(0, 0, 0)" stroke="rgb(204, 204, 204)" stroke-width="1px"></line></g></g></g></g></svg>